<svg width="518" height="220" viewBox="0 0 518 220" fill="none" xmlns="http://www.w3.org/2000/svg">
<g clip-path="url(#clip0)">
<path d="M109.665 59.2844C108.623 54.5371 112.213 49.5581 110.939 44.8108C110.707 43.6529 110.012 42.7266 109.202 42.0318C106.654 40.1792 98.6638 42.9581 96.4636 50.2529C92.7579 62.9897 112.792 71.2108 108.854 83.9476C107.696 87.4213 104.338 89.3897 102.717 93.095C101.211 96.916 101.675 102.127 104.107 105.6C106.075 104.79 107.465 103.979 109.086 102.937C106.654 99.116 107.812 94.2529 110.939 91.0108C114.066 87.4213 118.003 84.5266 118.466 78.1581C119.161 68.5476 110.939 65.5371 109.665 59.2844ZM104.686 61.6002C105.149 63.5687 106.191 65.3055 107.696 66.695C108.044 67.0423 107.581 67.5055 107.233 67.1581C105.612 65.7687 104.454 63.8002 103.991 61.716C103.875 61.2529 104.57 61.1371 104.686 61.6002ZM108.623 47.5897C107.696 49.2108 107.233 51.0634 107.349 52.916C107.349 53.3792 106.654 53.3792 106.654 52.916C106.538 50.9476 107.117 48.8634 108.044 47.1266C108.16 46.895 108.854 47.2423 108.623 47.5897ZM112.56 72.0213C111.634 70.516 110.591 69.1266 109.549 67.8529C109.202 67.5055 109.781 67.0423 110.012 67.3897C111.17 68.7792 112.213 70.1687 113.139 71.6739C113.487 72.0213 112.792 72.3687 112.56 72.0213ZM109.897 87.8845C108.97 89.2739 108.16 90.7792 107.465 92.2844C107.349 92.7476 106.654 92.516 106.77 92.0529C107.349 90.4318 108.275 88.9266 109.202 87.4213C109.549 87.1897 110.128 87.5371 109.897 87.8845ZM105.496 99.0002L106.307 103.169C106.423 103.632 105.728 103.748 105.612 103.4L104.801 99.2318C104.686 98.7687 105.38 98.6529 105.496 99.0002ZM111.286 78.8529C111.402 77.116 110.939 75.495 109.897 74.1055C109.665 73.7581 110.128 73.295 110.36 73.6423C111.518 75.1476 112.097 77.0002 111.865 78.8529C111.981 79.316 111.17 79.316 111.286 78.8529ZM114.066 82.3266C113.834 82.7897 113.255 82.3266 113.487 81.9792C114.181 80.5897 114.529 78.9687 114.645 77.4634C114.645 77.0002 115.339 77.0002 115.339 77.4634C115.339 79.2002 114.876 80.8213 114.066 82.3266ZM102.138 51.1792C102.37 50.716 102.949 51.1792 102.717 51.5266C101.906 53.2634 101.559 55.2318 101.675 57.2002C101.675 57.6634 100.98 57.6634 100.98 57.2002C100.864 55.116 101.327 53.0318 102.138 51.1792Z" fill="#FEE253"/>
<path d="M161.428 115.095C153.554 108.495 140.584 105.716 129.93 107.221C133.751 109.305 135.604 114.284 135.604 118.453C135.373 122.505 130.741 124.589 127.382 125.516C119.624 127.6 110.823 125.979 104.569 120.884C98.316 121.463 94.3787 120.421 90.5573 118.337C74.2292 123.084 67.6284 127.6 62.5331 131.305C57.322 135.01 54.7744 141.032 54.0796 147.4C60.7961 143.926 67.9758 144.158 73.6502 147.053C76.5452 141.842 85.2304 137.442 105.033 139.989C107.812 147.863 116.844 155.389 115.571 163.379C115.339 164.768 114.528 168.01 113.949 169.979C114.297 170.21 114.644 170.442 114.992 170.674C119.16 168.937 120.782 168.705 123.792 167.895C126.224 167.316 133.404 165.116 135.604 164.768C135.257 164.653 135.257 164.305 135.489 164.074C139.542 161.295 143.247 159.095 146.606 155.853C146.258 155.737 146.027 155.621 145.679 155.505C145.216 155.389 145.448 154.695 145.911 154.81C146.374 154.926 146.721 155.158 147.185 155.274C147.416 155.042 147.648 154.81 147.764 154.579C147.648 154.347 147.764 154.116 148.111 154.116C149.964 151.684 151.238 148.905 150.659 145.663C150.543 144.968 150.311 144.274 150.195 143.463C149.153 137.558 144.289 133.621 140.005 129.453C139.657 129.105 140.121 128.642 140.468 128.989C144.521 132.926 149.153 136.747 150.659 142.189C150.774 142.653 150.774 143 150.89 143.463C151.006 143.926 151.469 144.968 151.469 146.705C151.585 149.484 150.659 151.916 149.037 154.116C150.543 154 152.048 153.653 153.322 152.958C153.785 152.726 154.133 153.421 153.669 153.537C152.048 154.347 150.195 154.81 148.458 154.81C148.227 155.042 148.111 155.274 147.879 155.505C148.69 155.621 149.616 155.621 150.543 155.621C151.006 155.621 151.006 156.316 150.543 156.316C149.501 156.432 148.458 156.316 147.416 156.084C146.027 157.474 144.637 158.632 143.131 159.789C141.394 161.063 135.952 164.768 135.836 164.768C137.689 164.537 141.163 165.232 144.289 167.084C148.922 169.747 151.585 174.495 151.932 179.705C160.618 178.779 168.029 173.221 172.198 166.158C180.42 151.916 176.946 128.179 161.428 115.095ZM91.0205 138.947C91.0205 139.179 90.7889 139.295 90.5573 139.295C90.4415 139.41 90.2099 139.295 90.2099 139.295C89.2835 138.368 88.7044 137.326 88.5886 136.053C88.4728 135.589 89.1676 135.358 89.2834 135.821C89.3992 136.747 89.8625 137.674 90.4415 138.368C90.4415 137.095 90.2099 135.821 89.6309 134.663C89.3993 134.2 90.0941 133.853 90.2099 134.316C90.9047 135.705 91.2521 137.326 91.0205 138.947ZM121.245 137.326C120.55 135.705 119.739 134.2 119.045 132.579C118.813 132.116 119.508 131.653 119.739 132.116C120.434 133.737 121.245 135.242 121.94 136.863C122.171 137.442 121.476 137.789 121.245 137.326ZM147.995 116.021C146.374 116.832 144.753 117.642 143.247 118.337C142.784 118.568 142.321 117.874 142.784 117.642C144.405 116.832 146.027 116.021 147.532 115.326C147.995 115.095 148.458 115.789 147.995 116.021ZM161.197 129.684C160.733 131.653 160.154 133.621 159.691 135.589C159.575 136.053 158.765 135.937 158.881 135.358L160.386 129.453C160.502 128.989 161.312 129.221 161.197 129.684Z" fill="#FCAFB7"/>
<path d="M83.1462 103.169C83.0304 102.011 82.683 100.737 81.9882 99.6949C80.5986 97.9581 78.5141 97.0318 76.3139 97.2634C73.4188 97.3791 70.7554 98.6528 68.0919 99.4634C62.9966 100.969 57.3223 101.779 52.4587 99.0002C50.3742 97.8423 48.753 96.1055 47.8266 93.9055C47.016 91.5897 46.6685 89.2739 46.7844 86.8423C46.7844 82.3265 47.1318 77.4634 44.1209 73.7581C40.9942 70.0528 34.2777 68.2002 26.6348 71.2107C24.2029 72.137 21.6553 73.1791 18.9918 72.9476C16.56 72.8318 14.3597 71.3265 13.5491 69.0107C12.6227 66.6949 12.6227 64.1476 12.5069 61.716L12.1595 57.4318C12.1595 56.8528 11.2331 56.8528 11.3489 57.4318C11.8121 64.4949 11.6963 69.3581 14.4755 72.0212C18.9918 75.8423 24.0871 72.9476 28.835 71.4423C35.4357 69.4739 43.0787 71.0949 45.2789 77.5791C45.9737 79.8949 46.2053 82.4423 46.0895 84.8739C46.0895 89.5055 45.9737 94.6002 49.5636 98.0739C55.4695 103.632 64.3863 102.011 72.0292 99.2318C74.5769 98.4212 77.5877 97.6107 80.0196 99.116C81.0618 99.6949 81.7566 100.621 81.9882 101.779C82.104 102.358 82.2198 102.937 82.4514 103.516C82.7988 103.284 82.9146 103.284 83.1462 103.169Z" fill="#AC47F5"/>
<path d="M115.803 97.8421C115.224 95.179 117.887 92.979 120.435 92.5158C123.33 91.9369 126.225 92.2842 129.004 89.7369C133.289 85.8 134.331 77.6948 133.057 71.9053C131.667 65.6526 127.035 60.5579 125.762 54.3053C124.719 48.4 127.267 42.4948 132.362 39.2527C133.636 38.4421 135.257 37.979 136.184 36.5895C136.994 35.2 136.879 33.4632 136.647 31.9579C136.068 27.7895 135.142 23.7369 133.868 19.6842C133.752 19.2211 132.941 19.3369 133.057 19.9158C134.215 23.5053 135.026 27.0948 135.605 30.8C135.836 32.3053 136.3 34.1579 135.721 35.6632C135.142 37.2842 133.405 37.7474 132.131 38.5579C127.267 41.5684 124.488 46.8948 124.719 52.5684C125.298 62.179 134.563 67.7369 132.478 80.5895C131.667 85.8 129.236 90.6632 124.025 91.3579C122.287 91.7053 120.319 91.7053 118.582 92.2842C116.382 93.2105 113.95 96.1053 114.992 98.5369C115.339 98.3053 115.339 98.3053 115.803 97.8421Z" fill="#AC47F5"/>
<path d="M119.508 110.232C119.508 109.768 120.203 109.768 120.203 110.232C120.203 117.063 112.328 120.074 105.496 120.768C114.644 127.6 127.382 126.674 133.057 121.926C134.678 120.653 135.141 118.8 134.678 116.716C132.941 105.6 125.53 107.337 119.971 104.442C119.739 104.326 119.739 103.979 119.971 103.863C120.434 103.632 120.782 103.168 121.013 102.705C121.476 100.505 120.434 97.2632 118.234 97.379C117.076 97.4948 116.265 98.4211 115.339 99.2316C112.328 101.895 108.97 104.095 105.38 105.832C103.18 106.874 100.864 107.568 98.4319 107.8C93.5682 108.379 85.6936 108.495 82.9144 104.558C82.4511 109.768 86.2726 115.905 92.2943 118.453C95.421 119.958 98.8951 120.653 104.569 120.19C111.286 119.726 119.508 116.947 119.508 110.232ZM92.9892 111.042C93.105 110.579 93.684 110.811 93.684 111.274C93.4524 112.2 93.4524 113.126 93.7998 113.937C94.1472 114.632 94.842 114.863 95.5368 114.632C95.8842 114.4 96.3474 114.979 95.8842 115.211C94.9578 115.674 93.9156 115.326 93.3366 114.516C92.6417 113.474 92.8734 112.2 92.9892 111.042ZM105.033 110.116C105.264 110.811 105.612 111.621 105.843 112.316C105.959 112.779 105.264 112.895 105.148 112.547L104.338 110.347C104.106 109.884 104.801 109.768 105.033 110.116ZM116.613 102.821C118.466 100.621 118.35 99.6948 118.929 100.042C119.045 100.158 119.16 100.39 119.045 100.505C118.466 101.432 117.771 102.358 117.076 103.284C116.844 103.632 116.265 103.168 116.613 102.821ZM88.4729 112.084C88.2413 111.505 87.8939 110.926 87.6622 110.463C87.4306 110.116 88.0097 109.653 88.2413 110.116C88.4729 110.695 88.8203 111.274 89.0519 111.737C89.2835 112.2 88.7045 112.547 88.4729 112.084ZM102.369 117.295C101.906 117.179 102.138 116.484 102.601 116.6C105.264 117.295 108.159 116.253 109.665 113.937C109.896 113.59 110.475 113.937 110.244 114.284C108.507 116.947 105.264 118.105 102.369 117.295Z" fill="#FFCEB6"/>
<path d="M83.9567 66.695C84.1883 63.9161 83.9567 61.0214 83.4935 58.2424C82.4512 53.1477 77.935 48.6319 72.6081 50.0214C70.292 50.7161 68.4392 52.3372 66.2389 53.1477C63.9229 54.1898 61.491 53.6108 59.8698 51.6424C56.2799 47.474 58.596 41.1056 56.2799 35.2003C54.4271 30.2214 48.8686 26.8635 44.1207 29.9898C39.3728 33.2319 39.3728 39.7161 40.0676 44.8108C40.8783 50.0214 42.8469 55.1161 46.321 59.0529C51.1846 64.6108 59.754 66.8108 66.1231 63.1056C67.2812 62.295 68.4392 61.6003 69.713 60.9056C73.1871 59.5161 76.7769 62.5266 77.8191 66.5793C78.514 69.2424 78.7456 72.1371 80.7142 74.1056C81.5248 74.9161 82.6828 75.495 83.7251 75.495C84.7673 75.7266 83.3777 73.7582 83.9567 66.695ZM78.3982 59.4003C77.2401 58.7056 75.8505 58.3582 74.4609 58.7056C73.9977 58.8214 73.8819 58.1266 74.2293 58.0108C75.7347 57.6635 77.3559 58.0108 78.6298 58.8214C79.093 59.0529 78.7456 59.6319 78.3982 59.4003ZM70.292 55.0003C72.029 54.6529 73.7661 54.4214 75.3873 54.1898C75.8505 54.1898 75.8505 54.8845 75.3873 54.8845C73.7661 55.1161 72.029 55.3477 70.4078 55.695C70.0604 55.8108 69.9446 55.1161 70.292 55.0003ZM66.4705 57.5477C64.6177 58.2424 62.6491 58.3582 60.6804 57.7793C60.2172 57.6635 60.4488 56.9687 60.912 57.0845C62.6491 57.5477 64.6177 57.4319 66.3547 56.8529C66.7021 56.7372 66.8179 57.4319 66.4705 57.5477ZM48.9844 40.874C48.637 39.3687 48.637 37.8635 48.7528 36.3582C48.7528 35.895 49.4476 35.895 49.4476 36.3582C49.3318 37.8635 49.3318 39.2529 49.6792 40.7582C49.795 41.1056 49.1002 41.3372 48.9844 40.874ZM55.0061 47.5898C55.2377 47.9372 54.6587 48.2845 54.4271 47.9372C53.0375 45.7372 52.4585 43.074 52.6901 40.5266C52.6901 40.0635 53.5007 40.0635 53.3849 40.5266C53.0375 42.9582 53.6165 45.5056 55.0061 47.5898ZM57.0906 60.5582C55.0061 60.3266 53.0375 59.5161 51.4163 58.1266C51.0688 57.7793 51.5321 57.3161 51.8795 57.6635C53.2691 58.9372 55.1219 59.7477 56.9748 59.9793C57.5538 59.8635 57.5538 60.5582 57.0906 60.5582ZM51.3005 51.295C51.8795 52.8003 53.2691 53.8424 54.7745 54.3056C55.2377 54.4214 55.0061 55.1161 54.5429 55.0003C52.6901 54.5372 51.3005 53.2635 50.6056 51.5266C50.374 51.0635 51.0688 50.8319 51.3005 51.295ZM45.7419 46.0845C45.1629 44.1161 44.9313 42.0319 45.0471 39.9477C45.0471 39.4845 45.7419 39.4845 45.7419 39.9477C45.5103 44.695 47.0158 46.2003 46.0894 46.3161C45.9736 46.4319 45.8577 46.3161 45.7419 46.0845Z" fill="#AC47F5"/>
<path d="M91.7154 21.9998C89.9783 21.0735 89.5151 21.7682 86.8517 21.6524C84.9989 21.3051 83.8408 18.8735 86.1569 15.5156C89.8625 9.37873 93.2208 10.6524 90.9048 4.74715C89.9783 1.96821 87.6623 -0.579161 84.6514 0.231366C81.6406 1.04189 80.4826 4.63137 82.4512 7.06294C83.8408 8.684 84.8831 8.45242 85.4621 10.0735C85.8095 11.8103 83.9566 13.084 82.7986 13.8945C78.5139 16.6735 80.251 23.0419 85.8095 23.9682C87.8939 24.3156 90.4415 23.7366 91.7154 25.2419C93.105 27.3261 89.9783 29.7577 90.4415 32.6524C90.4415 32.9998 90.9048 32.884 90.789 32.884C90.9048 32.884 91.1364 32.7682 91.1364 32.6524C91.947 29.0629 93.3366 28.1366 93.684 25.1261C93.684 23.7366 92.8734 22.5787 91.7154 21.9998Z" fill="#86F2AA"/>
<path d="M61.6069 72.2528C59.5225 71.7896 57.6696 73.9896 57.7854 76.0739C57.9012 78.2739 61.1437 78.737 62.8807 77.3475C64.6178 76.0739 63.8071 72.8318 61.6069 72.2528Z" fill="#FCAFB7"/>
<path d="M75.5029 35.3158C74.5765 35.0842 73.5343 35.3158 72.8395 35.8947C72.3763 36.7053 72.3763 37.6316 72.9553 38.4421C74.1133 39.3684 75.9662 38.6737 76.4294 37.1684C76.5452 36.4737 76.082 35.6632 75.5029 35.3158Z" fill="#FEE253"/>
<path d="M94.1474 96.5688C91.2523 96.9161 88.3573 97.1477 85.3464 97.1477C85.3464 94.8319 85.4622 92.5161 85.8096 90.2004C85.9254 89.7372 85.3464 89.5056 85.1148 89.9688C84.3042 91.3582 83.0304 92.4004 81.5249 92.9793C81.0617 93.0951 81.2933 93.9056 81.7566 93.674C86.5044 91.8214 84.42 88.4635 84.5358 97.6109C84.5358 97.8425 84.6516 97.9582 84.8832 97.9582C87.5467 97.9582 90.3259 97.8425 92.9894 97.4951C91.3681 99.1161 89.8627 100.737 88.3573 102.474C88.0099 102.821 88.5889 103.4 88.9363 103.053C90.6733 101.085 92.5261 99.2319 94.379 97.3793C94.6106 97.0319 94.379 96.453 94.1474 96.5688Z" fill="#86F2AA"/>
<path d="M120.55 12.1578C117.771 9.14729 114.76 6.13676 113.602 2.08413C113.486 1.62097 112.676 1.73676 112.791 2.31571C113.949 6.13676 116.497 9.14729 119.276 11.9262C116.266 11.8104 113.37 12.8526 111.17 14.9368C110.707 15.3999 110.244 15.8631 110.591 16.5578C111.402 17.7157 113.486 19.5683 115.918 20.7262C113.602 20.7262 111.17 20.7262 108.854 20.7262C108.275 20.7262 108.275 21.5368 108.854 21.5368C111.981 21.5368 115.108 21.5368 118.234 21.5368C118.697 21.5368 118.813 20.842 118.35 20.7262C115.455 19.7999 113.023 18.0631 111.518 16.3262C111.402 16.0947 111.402 16.0947 111.518 15.8631C113.023 14.0104 116.613 12.2736 120.319 12.8526C120.55 12.9683 120.898 12.5052 120.55 12.1578Z" fill="#FF9F48"/>
<path d="M102.138 51.1792C101.327 53.0318 100.864 55.116 100.98 57.2002C100.98 57.6634 101.674 57.6634 101.674 57.2002C101.559 55.2318 102.022 53.3792 102.717 51.5265C102.948 51.0634 102.369 50.716 102.138 51.1792Z" fill="#1D1D1B"/>
<path d="M107.233 53.0319C107.117 51.1793 107.58 49.3267 108.507 47.7056C108.738 47.3582 108.159 47.0109 107.928 47.3582C106.885 49.0951 106.422 51.0635 106.538 53.1477C106.538 53.4951 107.233 53.4951 107.233 53.0319Z" fill="#1D1D1B"/>
<path d="M107.696 66.6948C106.191 65.3054 105.149 63.5685 104.685 61.6001C104.57 61.137 103.875 61.3685 103.991 61.8317C104.454 63.9159 105.612 65.7685 107.233 67.2738C107.58 67.5054 108.044 66.9264 107.696 66.6948Z" fill="#1D1D1B"/>
<path d="M110.012 67.2739C109.665 66.9265 109.201 67.3897 109.549 67.7371C110.707 69.0107 111.633 70.4002 112.56 71.9055C112.791 72.2528 113.37 71.9055 113.139 71.5581C112.328 70.0528 111.17 68.6634 110.012 67.2739Z" fill="#1D1D1B"/>
<path d="M109.896 74.1057C110.939 75.4952 111.402 77.1162 111.286 78.8531C111.286 79.3162 111.981 79.3162 111.981 78.8531C112.097 77.0005 111.633 75.1478 110.475 73.6426C110.128 73.2952 109.665 73.7583 109.896 74.1057Z" fill="#1D1D1B"/>
<path d="M114.644 77.4636C114.644 79.0846 114.297 80.5899 113.486 81.9794C113.255 82.4425 113.95 82.7899 114.065 82.3267C114.876 80.8215 115.223 79.0846 115.223 77.4636C115.339 77.0004 114.644 77.0004 114.644 77.4636Z" fill="#1D1D1B"/>
<path d="M109.317 87.5371C108.275 88.9266 107.464 90.5476 106.885 92.1687C106.769 92.6318 107.348 92.7476 107.58 92.4003C108.159 90.895 108.97 89.3897 110.012 88.0003C110.128 87.5371 109.549 87.1897 109.317 87.5371Z" fill="#1D1D1B"/>
<path d="M104.801 99.2319L105.612 103.4C105.727 103.863 106.422 103.632 106.306 103.169L105.496 99.0003C105.38 98.6529 104.685 98.7687 104.801 99.2319Z" fill="#1D1D1B"/>
<path d="M90.2099 134.316C89.9783 133.853 89.3993 134.316 89.6309 134.663C90.2099 135.821 90.4415 137.095 90.4415 138.369C89.8625 137.674 89.3993 136.748 89.2835 135.821C89.1677 135.358 88.4728 135.59 88.5887 136.053C88.8203 137.326 89.3993 138.369 90.2099 139.295C90.3257 139.411 90.4415 139.411 90.5573 139.295C90.7889 139.411 91.0205 139.179 91.0205 138.948C91.1363 137.326 90.9047 135.705 90.2099 134.316Z" fill="#1D1D1B"/>
<path d="M72.6081 154.116C72.3765 153.769 72.1449 153.306 72.1449 152.842C71.9133 150.99 72.2607 149.137 72.9555 147.516C67.7444 144.853 60.4489 144.621 54.1956 148.095C53.7324 153.769 54.7746 162.569 55.9326 166.506C56.5116 168.242 58.0171 170.211 60.1015 169.748C62.1859 169.285 62.0701 166.737 61.9543 165.232C61.9543 164.885 62.4175 164.769 62.6491 165C63.4598 165.927 64.1546 166.969 64.9652 167.895C65.5442 168.59 66.1232 169.748 67.1654 169.632C68.0919 169.4 68.7867 168.706 68.9025 167.779C69.0183 166.621 68.6709 165.463 68.2077 164.421C68.0919 164.074 68.4393 163.842 68.6709 164.074C71.3343 165.811 70.7553 167.432 73.0713 169.169C74.1136 169.863 75.2716 169.053 75.8506 168.127C77.1244 165.116 76.3138 161.179 74.6926 158.4C74.5768 158.053 74.8084 157.706 75.1558 157.937C76.8928 159.211 79.5563 159.674 80.5985 157.706C81.2933 155.853 78.7457 154.927 77.4718 154.811C75.5032 154.579 73.882 155.274 72.6081 154.116ZM59.2909 161.063C59.1751 161.527 58.4803 161.295 58.5961 160.832C58.8277 160.137 58.9435 159.558 59.0593 158.863C59.0593 158.4 59.7541 158.4 59.7541 158.863C59.6383 159.674 59.5225 160.369 59.2909 161.063ZM64.502 160.137C64.3862 160.6 63.6914 160.369 63.8072 159.906C63.923 159.442 63.923 158.979 64.0388 158.4C64.1546 157.937 64.8494 158.169 64.7336 158.632C64.7336 159.211 64.6178 159.674 64.502 160.137ZM70.4079 158.979C70.2921 159.442 69.5973 159.211 69.7131 158.748C69.8289 158.053 69.9447 157.242 70.0605 156.548C70.1763 156.085 70.8711 156.316 70.7553 156.779C70.6395 157.474 70.5237 158.169 70.4079 158.979Z" fill="#FFCEB6"/>
<path d="M126.688 192.327C125.877 190.127 125.298 187.464 125.182 186.421C123.561 188.853 122.982 191.864 120.434 192.79C119.508 193.021 118.582 192.674 118.118 191.979C117.887 191.4 117.771 190.706 118.003 190.011C118.466 185.379 118.466 185.495 118.35 185.264C118.003 184.916 116.034 185.495 114.76 187C113.602 188.274 113.602 188.737 112.792 189.664C111.981 190.358 110.707 190.011 110.36 189.085C109.781 187.927 110.36 187 112.097 181.674C109.896 182.021 108.507 185.727 106.307 186.19C105.38 186.421 104.57 185.843 104.338 184.916C104.222 184.337 104.454 182.832 105.264 181.558C106.77 178.779 108.854 176 112.444 172.295C112.907 171.716 113.023 171.485 115.108 170.674C113.486 169.632 112.097 168.59 110.707 167.548C110.591 167.432 110.476 167.432 110.36 167.548C97.1583 177.621 96.2318 177.621 96.3476 178.2C97.5057 183.527 99.1269 188.853 100.98 193.948C101.79 196.032 101.675 195.916 102.254 196.264C114.644 203.095 114.181 202.748 114.413 202.632C118.118 200.2 123.677 196.032 126.688 192.674C126.688 192.558 126.688 192.443 126.688 192.327ZM97.0425 178.664C96.9267 178.548 96.9267 178.432 97.0425 178.316C97.1583 178.2 97.1583 178.2 97.2741 178.2C97.3899 178.2 97.5057 178.2 97.6215 178.316C99.3585 180.285 101.327 182.021 103.527 183.527C103.875 183.758 103.527 184.337 103.18 184.106C100.748 182.369 98.8953 180.632 97.0425 178.664ZM113.95 202.169C112.676 198.811 111.634 195.337 110.823 191.979C110.707 191.516 111.402 191.4 111.518 191.748C112.328 195.221 113.486 198.695 114.644 201.937C114.76 202.4 114.181 202.632 113.95 202.169Z" fill="#FEE253"/>
<path d="M125.761 184.453C132.593 178.663 142.321 180.284 151.006 179.358C150.774 176.927 149.964 174.495 148.69 172.411C146.027 168.011 140.468 165.463 136.299 165.348C135.025 165.348 134.678 165.463 131.899 166.274C118.697 169.863 118.813 169.748 115.223 171.253C113.718 171.716 113.023 172.295 112.096 173.337C108.622 176.927 106.77 179.59 105.38 182.253C105.033 182.948 104.338 184.337 104.917 185.148C105.727 186.074 107.117 184.684 107.696 183.99C108.97 182.6 110.244 180.748 112.212 180.748C112.444 180.748 112.56 180.863 112.56 181.095C112.56 181.211 112.675 180.979 111.17 185.263C110.938 185.958 110.707 186.537 110.591 187.232C110.359 187.811 110.591 188.506 111.054 188.969C112.56 190.011 113.139 185.032 116.96 184.337C117.423 184.221 117.887 184.221 118.35 184.453C118.697 184.685 118.929 185.148 118.813 185.611C118.466 190.474 118.234 190.474 118.466 191.284C118.697 191.632 119.16 191.863 119.624 191.863C122.403 192.211 123.213 186.653 125.761 184.453ZM114.297 176.811C114.297 177.274 113.602 177.274 113.602 176.811V175.19C113.602 174.727 114.297 174.727 114.297 175.19V176.811ZM124.024 179.937C124.256 180.863 124.256 181.79 124.256 182.716C124.256 183.179 123.561 183.179 123.561 182.716C123.561 181.79 123.561 180.979 123.329 180.053C123.213 179.59 123.908 179.474 124.024 179.937ZM119.16 179.59C119.045 179.011 118.929 178.316 118.929 177.737C118.813 177.274 119.508 177.042 119.624 177.506C119.739 178.085 119.855 178.779 119.855 179.358C119.855 179.821 119.16 180.053 119.16 179.59Z" fill="#FFCEB6"/>
<path d="M62.6491 176.232C62.6491 176.116 62.6491 176 62.5333 175.884C69.4815 172.99 73.8819 172.179 74.3451 172.063C74.6926 171.832 74.5767 171.253 74.3451 170.905C73.9977 170.558 73.5345 171.021 73.7661 171.369C69.8289 172.295 66.1232 173.569 62.4175 175.074C62.5333 174.842 62.4175 174.726 62.1859 174.611C49.3319 170.558 47.5948 171.021 45.9736 169.632C45.8578 169.516 45.6262 169.516 45.3946 169.632C45.3946 169.632 45.3946 169.284 45.3946 169.169C48.4055 168.126 51.5321 167.084 54.543 166.042C55.0062 165.926 54.7746 165.116 54.3114 165.348C51.3005 166.39 48.2897 167.432 45.2788 168.474C45.163 168.126 44.584 168.242 44.584 168.59C44.8156 173.916 45.2788 179.358 45.9736 184.684C46.0894 185.148 46.7842 185.148 46.6684 184.684C46.0894 179.937 45.6262 175.074 45.3946 170.211C47.7106 171.948 48.4055 171.021 61.8385 175.305C61.6069 175.537 61.6069 175.884 61.9543 176C61.7227 176.348 61.4911 181.442 62.9965 186.537C63.1123 187 63.8071 186.769 63.6913 186.305C62.7649 183.063 62.4175 179.705 62.6491 176.232Z" fill="#AC47F5"/>
<path d="M81.6406 180.864C75.9663 183.064 70.292 185.495 64.7335 188.042C64.2703 188.274 64.7335 188.853 65.0809 188.737C70.292 186.306 75.6189 183.99 81.0616 181.906C80.83 181.79 80.83 181.558 80.83 181.442C80.9458 181.095 81.409 181.327 81.988 181.442C82.2196 181.095 81.988 180.748 81.6406 180.864Z" fill="#AC47F5"/>
<path d="M61.0278 189.2C61.0278 189.2 51.6478 186.537 50.4898 186.189C49.4476 185.958 48.5212 185.495 47.7105 184.8C47.3631 184.453 46.7841 185.032 47.1315 185.379C48.637 186.653 48.7528 186.537 60.6804 189.895C61.3752 190.011 61.491 189.316 61.0278 189.2Z" fill="#AC47F5"/>
<path d="M81.4093 171.485C81.4093 171.021 80.5986 171.021 80.7144 171.485C80.9461 174.379 81.1777 177.158 81.5251 180.053C81.5251 180.516 82.3357 180.516 82.2199 180.053C81.8725 177.158 81.5251 174.264 81.4093 171.485Z" fill="#AC47F5"/>
<path d="M77.24 195.568C73.1869 194.41 69.1339 193.253 65.0808 191.747C64.6176 191.632 64.386 192.326 64.8492 192.442C68.7864 193.947 72.8395 195.221 77.0084 196.263C77.4716 196.379 77.7032 195.684 77.24 195.568Z" fill="#86F2AA"/>
<path d="M76.8926 197.305C77.1242 202.284 77.4716 207.147 77.7032 212.126C77.7032 212.59 78.5138 212.59 78.398 212.126L77.5874 197.305C77.7032 196.842 76.8926 196.842 76.8926 197.305Z" fill="#86F2AA"/>
<path d="M95.8842 187.348C91.3679 184.569 86.2726 182.369 81.4089 181.211C80.9457 181.095 80.7141 181.79 81.1773 181.905C81.4089 182.137 87.8938 183.179 95.5368 188.042C95.8842 188.274 96.2316 187.579 95.8842 187.348Z" fill="#86F2AA"/>
<path d="M81.5251 197.074C93.4527 192.443 93.4527 192.674 94.8424 191.4C95.1898 191.053 94.6108 190.474 94.2633 190.821C92.9895 191.979 93.3369 191.748 81.1777 196.379C80.9461 196.495 81.1777 197.306 81.5251 197.074Z" fill="#86F2AA"/>
<path d="M76.5452 211.2C67.1653 208.074 66.9337 208.19 65.544 207.032C65.1966 206.685 64.6176 207.263 64.965 207.611C66.3547 208.885 68.3233 209.348 70.0603 209.927L76.4294 211.895C76.8927 212.011 77.0085 211.316 76.5452 211.2Z" fill="#86F2AA"/>
<path d="M95.0736 206.568C91.1363 208.768 87.8938 210.389 83.6091 211.895C82.2195 212.474 80.8299 212.821 79.3245 212.705C78.8612 212.705 78.8612 213.4 79.3245 213.4C80.8299 213.516 82.2195 213.168 83.6091 212.589C87.6622 211.2 91.7153 209.347 95.421 207.147C95.8842 207.032 95.421 206.337 95.0736 206.568Z" fill="#86F2AA"/>
<path d="M58.1327 192.558C54.6586 193.6 51.1846 194.642 47.7105 195.684C47.5947 195.684 47.4789 195.684 47.4789 195.684L46.8999 195.916C46.4367 196.147 46.7841 196.842 47.2473 196.726C50.953 195.568 54.6586 194.526 58.3643 193.368C58.9433 193.137 58.7117 192.442 58.1327 192.558Z" fill="#FF9F48"/>
<path d="M62.3018 195.453C62.3018 194.874 61.4912 194.874 61.4912 195.453C61.607 200.084 61.9544 204.716 62.6492 209.348C62.765 209.926 63.5756 209.695 63.4598 209.116C62.765 204.6 62.4176 199.969 62.3018 195.453Z" fill="#FF9F48"/>
<path d="M57.438 209.695C45.1629 214.442 45.2787 214.442 43.5417 214.79L43.6575 214.674C43.7733 214.442 43.6575 214.095 43.3101 214.095C42.7311 209 42.2679 203.79 41.9205 198.695C41.9205 198.116 41.1099 198.116 41.1099 198.695C41.3415 201.705 42.3837 214.674 42.6153 215.253C42.4995 215.484 42.6153 215.832 42.9627 215.832C44.1207 215.716 45.3945 215.369 46.4368 214.905C47.7106 214.442 57.6696 210.621 57.6696 210.621C58.1328 210.274 57.9012 209.463 57.438 209.695Z" fill="#FF9F48"/>
<path d="M41.689 195.8C35.5515 193.253 31.8458 192.442 27.9085 191.516C33.8145 189.548 39.6046 187.348 45.2789 184.916C45.7421 184.685 45.5105 183.874 45.0473 184.106C31.4984 189.779 26.8663 190.59 26.7505 191.169C26.6347 191.169 26.5189 191.053 26.2873 191.053C25.8241 190.937 25.5925 191.748 26.0557 191.864C30.2246 193.021 34.2777 193.6 41.4574 196.611C41.9206 196.842 42.1522 196.032 41.689 195.8Z" fill="#FF9F48"/>
<path d="M43.8892 174.727C39.1413 177.158 34.1618 179.011 29.0665 180.4C28.6033 180.516 28.9507 181.442 29.2981 181.558L30.2245 189.085C30.2245 189.548 31.0352 189.548 30.9194 189.085C30.5719 186.653 30.3403 184.221 29.9929 181.79C32.6564 182.832 35.5514 183.527 38.4465 183.758C38.9097 183.758 38.9097 183.064 38.4465 183.064C35.8988 182.832 31.2668 181.79 29.7613 180.863C34.7408 179.474 39.6045 177.621 44.2366 175.306C44.6998 175.19 44.3524 174.611 43.8892 174.727Z" fill="#1D1D1B"/>
<path d="M77.472 154C75.7349 153.884 72.8399 154.695 72.8399 152.611C72.6083 150.874 72.9557 149.021 73.7663 147.4C73.8821 147.284 73.7663 147.053 73.6505 146.937C67.9762 144.042 60.6806 143.811 54.0799 147.284C53.7325 147.4 53.6167 147.632 53.6167 147.979C53.3851 150.758 53.5009 155.505 54.1957 160.137C54.8905 165.232 55.3537 167.316 57.0908 169.284C58.2488 170.442 60.3332 170.905 61.7229 169.747C62.7651 168.937 62.9967 167.432 62.9967 166.158C63.6915 167.084 64.3863 167.895 65.0811 168.821C65.7759 169.632 66.5865 170.558 67.7446 170.326C69.9448 169.747 70.408 167.316 69.5974 165.347C71.4502 167.432 71.2186 168.589 73.3031 169.863C74.4611 170.326 75.8507 169.979 76.5455 168.821C78.2826 166.389 77.472 161.642 76.1981 158.979C78.1668 160.021 80.7144 159.905 81.6408 157.705C82.2198 155.505 79.3248 154.232 77.472 154ZM80.5986 157.705C79.5564 159.674 77.0087 159.211 75.1559 157.937C74.8085 157.821 74.4611 158.053 74.6927 158.4C76.3139 161.179 77.1246 165.116 75.8507 168.126C75.3875 169.168 74.2295 169.863 73.0715 169.168C70.7554 167.432 71.4502 165.811 68.671 164.074C68.4394 163.958 67.9762 164.189 68.2078 164.421C68.7868 165.463 69.0184 166.621 68.9026 167.779C68.7868 168.705 68.092 169.516 67.1656 169.632C66.1233 169.747 65.4285 168.589 64.9653 167.895C64.1547 166.968 63.4599 165.926 62.6493 165C62.4177 164.768 61.9545 164.768 61.9545 165.232C62.0703 166.853 62.1861 169.4 60.1016 169.747C58.0172 170.211 56.5118 168.242 55.9327 166.505C54.6589 162.453 53.7325 153.768 54.1957 148.095C60.3332 144.737 67.6288 144.853 72.9557 147.516C72.2609 149.137 71.9135 150.989 72.1451 152.842C72.2609 155.505 75.6191 154.579 77.472 154.811C78.8616 154.926 81.4092 155.853 80.5986 157.705Z" fill="#1D1D1B"/>
<path d="M70.0606 156.547C69.9448 157.242 69.829 158.053 69.7132 158.747C69.5974 159.211 70.2922 159.442 70.408 158.979C70.5238 158.284 70.6396 157.474 70.7554 156.779C70.8712 156.316 70.1764 156.084 70.0606 156.547Z" fill="#1D1D1B"/>
<path d="M64.0385 158.516C63.9227 158.979 63.9227 159.442 63.8069 160.021C63.6911 160.485 64.3859 160.716 64.5017 160.253C64.6175 159.79 64.6175 159.327 64.7333 158.748C64.8491 158.285 64.1543 158.053 64.0385 158.516Z" fill="#1D1D1B"/>
<path d="M59.0592 158.979C58.9434 159.674 58.8276 160.369 58.596 160.948C58.4802 161.411 59.175 161.527 59.2908 161.179C59.5224 160.484 59.754 159.79 59.754 158.979C59.754 158.516 59.0592 158.516 59.0592 158.979Z" fill="#1D1D1B"/>
<path d="M153.322 152.958C151.933 153.653 150.543 154 149.038 154.116C151.354 150.874 151.933 147.748 151.238 144.506C151.122 144.158 151.006 143.811 150.891 143.348C150.775 142.884 150.775 142.537 150.659 142.074C149.154 136.632 144.637 132.811 140.468 128.874C140.121 128.527 139.658 129.106 140.005 129.337C144.521 133.737 149.154 137.558 150.196 143.348C150.427 144.853 152.28 148.674 148.111 154C147.88 154 147.764 154.116 147.648 154.348C147.648 154.579 147.88 154.348 147.069 155.158C146.606 155.042 146.259 154.927 145.795 154.695C145.332 154.579 145.216 155.158 145.564 155.39C145.911 155.506 146.143 155.621 146.49 155.737C143.248 158.979 139.542 161.179 135.373 163.958C135.142 164.19 135.142 164.537 135.489 164.653C133.173 165 126.804 166.969 123.677 167.779C121.824 168.242 117.655 169.169 113.718 171.021C113.023 171.253 112.676 171.6 112.213 172.063C108.623 175.769 106.538 178.548 105.033 181.327C104.454 182.253 104.107 183.295 103.991 184.337C103.991 185.263 104.686 185.958 105.612 185.958C107.928 185.958 109.433 181.79 111.749 181.442C110.012 186.653 109.433 187.695 110.012 188.853C110.36 189.779 111.634 190.127 112.444 189.432C113.255 188.506 113.255 188.042 114.413 186.769C115.571 185.379 117.54 184.8 118.003 185.032C118.234 185.148 118.119 185.148 117.655 189.779C117.54 190.474 117.54 191.053 117.771 191.748C118.234 192.558 119.277 192.906 120.087 192.558C122.056 191.863 122.635 190.242 124.14 187.463C125.067 185.727 126.225 184.337 129.004 182.832C135.836 179.474 143.363 180.863 151.122 179.937C151.354 179.937 151.47 179.821 151.47 179.59C151.238 176.811 150.543 174.495 149.038 171.948C146.374 167.663 141.395 165 136.3 164.653C135.257 164.653 135.257 164.769 135.373 164.653C139.658 161.642 143.479 159.558 146.838 155.969C147.88 156.2 148.922 156.2 149.964 156.2C150.427 156.2 150.427 155.39 149.964 155.506C149.038 155.621 148.227 155.621 147.301 155.39C147.532 155.158 147.648 154.927 147.88 154.695C149.733 154.695 151.47 154.232 153.091 153.421C154.133 153.306 153.786 152.727 153.322 152.958ZM136.415 165.463C140.7 165.579 146.143 168.127 148.806 172.527C150.08 174.611 150.891 177.042 151.122 179.474C142.321 180.4 132.71 178.779 125.877 184.569C123.33 186.769 122.519 192.211 119.856 192.211C119.392 192.211 118.929 191.979 118.698 191.632C118.466 190.821 118.698 190.706 119.045 185.958C119.161 185.495 118.929 185.032 118.582 184.8C118.119 184.569 117.655 184.569 117.192 184.684C113.486 185.379 112.792 190.358 111.286 189.316C110.823 188.853 110.591 188.158 110.823 187.579C110.939 186.884 112.792 181.327 112.792 181.442C112.907 181.211 112.676 180.979 112.444 180.979C110.36 180.979 109.086 182.832 107.928 184.221C107.349 184.8 105.959 186.306 105.149 185.379C104.454 184.569 105.265 183.295 105.612 182.485C107.002 179.821 108.854 177.158 112.328 173.569C113.255 172.527 113.834 171.948 115.455 171.484C120.203 169.632 122.287 169.4 127.267 167.895C135.721 165.348 135.373 165.463 136.415 165.463Z" fill="#1D1D1B"/>
<path d="M113.602 175.19V176.811C113.602 177.274 114.297 177.274 114.297 176.811V175.19C114.297 174.726 113.602 174.726 113.602 175.19Z" fill="#1D1D1B"/>
<path d="M118.813 177.621C118.929 178.2 119.045 178.895 119.045 179.474C119.16 179.937 119.739 179.705 119.739 179.242C119.624 178.663 119.508 177.969 119.508 177.39C119.508 177.042 118.813 177.274 118.813 177.621Z" fill="#1D1D1B"/>
<path d="M123.329 180.053C123.561 180.863 123.561 181.79 123.561 182.716C123.561 183.179 124.256 183.179 124.256 182.716C124.256 181.79 124.256 180.863 124.024 179.937C123.908 179.474 123.214 179.59 123.329 180.053Z" fill="#1D1D1B"/>
<path d="M134.562 112.895C132.015 105.716 125.761 106.295 121.013 104.095C121.592 103.632 122.056 102.821 122.056 102.011C122.056 99.8109 121.129 96.9161 118.697 96.6846C117.655 96.6846 116.613 97.0319 115.918 97.8425C114.065 99.5793 111.054 101.895 108.854 103.285C104.222 106.179 100.053 107.453 94.3788 107.453C90.7889 107.569 88.0097 107.337 84.9988 105.6C83.8408 104.906 83.2618 103.748 83.146 103.285C83.146 102.937 82.567 102.937 82.4512 103.285C80.9458 109.653 86.2727 118.685 97.1581 120.769C99.5899 121.116 102.022 121.116 104.569 120.885C110.823 125.979 119.624 127.6 127.382 125.516C130.856 124.59 135.373 122.621 135.604 118.453C135.604 116.6 135.257 114.632 134.562 112.895ZM134.678 119.611C132.825 125.053 117.076 129.569 105.496 120.769C112.328 120.074 120.203 117.064 120.203 110.232C120.203 109.769 119.508 109.769 119.508 110.232C119.508 118.685 106.885 120.885 98.2003 120.074C88.5887 118.8 82.4512 111.274 83.0302 104.442C84.7672 106.874 88.2413 107.685 91.1364 107.916C95.8842 108.264 101.211 107.8 105.496 105.716C109.086 103.979 112.444 101.779 115.455 99.1161C116.265 98.4214 117.076 97.3793 118.35 97.2635C120.55 97.1477 121.708 100.506 121.129 102.59C120.898 103.053 120.55 103.516 120.087 103.748C119.855 103.864 119.855 104.211 120.087 104.327C125.645 107.221 133.057 105.485 134.794 116.6C135.025 117.642 134.91 118.685 134.678 119.611Z" fill="#1D1D1B"/>
<path d="M88.2416 110.116C88.01 109.769 87.4309 110.116 87.6625 110.463C87.8942 111.042 88.2416 111.621 88.4732 112.084C88.7048 112.432 89.2838 112.084 89.0522 111.737C88.8206 111.158 88.589 110.695 88.2416 110.116Z" fill="#1D1D1B"/>
<path d="M105.148 112.547C105.264 113.01 105.959 112.779 105.843 112.316C105.611 111.621 105.264 110.81 105.032 110.116C104.917 109.653 104.222 109.884 104.338 110.347L105.148 112.547Z" fill="#1D1D1B"/>
<path d="M109.549 113.937C108.043 116.253 105.148 117.411 102.485 116.6C102.022 116.484 101.906 117.179 102.253 117.295C105.264 118.105 108.391 116.947 110.128 114.284C110.359 113.937 109.78 113.589 109.549 113.937Z" fill="#1D1D1B"/>
<path d="M95.5369 114.631C94.8421 114.863 94.0315 114.516 93.7999 113.937C93.4525 113.126 93.4525 112.084 93.6841 111.274C93.7999 110.81 93.1051 110.579 92.9893 111.042C92.8735 112.2 92.6419 113.589 93.3367 114.516C93.9157 115.326 94.9579 115.674 95.8844 115.21C96.3476 114.979 96.0002 114.4 95.5369 114.631Z" fill="#1D1D1B"/>
<path d="M118.466 100.158C117.887 101.084 117.308 102.011 116.613 102.821C116.265 103.169 116.844 103.632 117.076 103.284C117.771 102.474 118.466 101.548 119.045 100.505C119.276 100.158 118.697 99.8107 118.466 100.158Z" fill="#1D1D1B"/>
<path d="M119.276 28.8318C118.234 28.0212 116.845 27.9055 116.034 28.4844C114.413 30.1055 115.455 33.0002 117.539 33.0002C119.971 32.8844 121.129 30.1055 119.276 28.8318Z" fill="#1D1D1B"/>
<path d="M121.592 56.8527C120.666 56.8527 119.74 56.8527 118.813 56.7369C119.392 55.9264 119.971 55.1158 120.434 54.3053C120.666 53.9579 120.087 53.6106 119.855 53.9579C119.392 54.7685 118.813 55.579 118.234 56.2737C117.539 55.3474 116.96 54.3053 116.613 53.2632C116.497 52.8 115.802 53.0316 115.918 53.4948C116.381 54.6527 116.845 55.579 117.655 56.6211C117.076 56.5053 116.497 56.3895 115.918 56.1579C115.455 56.0421 115.339 56.7369 115.687 56.8527C116.266 57.0843 116.96 57.2 117.539 57.3158C116.96 58.1264 116.266 58.8211 115.571 59.6316C115.223 59.979 115.802 60.4421 116.034 60.0948C116.845 59.2843 117.539 58.3579 118.234 57.4316C118.929 58.2421 119.855 58.9369 120.782 59.6316C121.129 59.8632 121.477 59.2843 121.129 59.0527C120.434 58.5895 119.855 58.1264 119.276 57.5474C119.971 57.6632 120.782 57.6632 121.477 57.6632C122.056 57.5474 122.056 56.8527 121.592 56.8527Z" fill="#1D1D1B"/>
<path d="M101.906 81.516C100.98 80.8213 100.169 80.0108 99.3587 79.2002C100.054 79.2002 100.633 79.2002 101.327 79.2002C101.791 79.2002 101.791 78.5055 101.327 78.5055C100.748 78.3897 100.169 78.3897 99.5903 78.3897C99.9377 77.695 100.285 76.8844 100.748 76.1897C100.98 75.8423 100.401 75.3792 100.169 75.8423C99.7061 76.6529 99.2429 77.5792 98.8955 78.3897C98.4323 77.8108 97.9691 77.116 97.6217 76.4213C97.3901 76.0739 96.8111 76.4213 97.0427 76.7687C97.3901 77.3476 97.7375 77.9265 98.2007 78.5055C97.5059 78.6213 96.8111 78.7371 96.1163 78.9686C95.6531 79.0844 95.8847 79.7792 96.3479 79.6634C97.0427 79.4318 97.8533 79.316 98.6639 79.2002C98.2007 80.1265 97.8533 81.0529 97.3901 81.9792C97.1585 82.4423 97.8533 82.7897 97.9691 82.3265C98.3165 81.4002 98.7797 80.5897 99.1271 79.7792C99.9377 80.7055 100.748 81.4002 101.675 82.095C101.906 82.4423 102.254 81.7476 101.906 81.516Z" fill="#1D1D1B"/>
<path d="M68.671 88.4634C67.9762 88.9265 67.1656 89.2739 66.4707 89.7371C66.7023 89.1581 66.934 88.4634 67.0498 87.8844C67.1656 87.4213 66.4707 87.3055 66.3549 87.6529C66.2391 88.116 66.1233 88.4634 65.8917 88.9265C65.5443 88.2318 65.1969 87.5371 64.8495 86.8423C64.6179 86.3792 64.0389 86.8423 64.2705 87.1897C64.6179 88.116 65.0811 89.0423 65.5443 89.8529C65.3127 90.316 65.7759 89.9687 62.6493 91.8213C62.3019 92.0529 62.6493 92.6318 62.9967 92.4002C63.6915 92.0529 64.3863 91.5897 64.9653 91.2423C64.7337 91.8213 64.5021 92.2844 64.2705 92.8634C64.0389 93.3265 64.7337 93.6739 64.8495 93.2108C65.1969 92.4002 65.6601 91.4739 65.8917 90.6634C66.2391 91.3581 66.7023 92.1686 67.1656 92.8634C67.3972 93.2108 67.9762 92.8634 67.7446 92.516C67.2814 91.8213 66.934 91.0108 66.4707 90.316C67.2814 89.8529 67.9762 89.3897 68.7868 89.0423C69.4816 88.8108 69.1342 88.2318 68.671 88.4634Z" fill="#1D1D1B"/>
<path d="M35.5516 55.5788C34.6252 55.2315 33.583 54.9999 32.6566 54.6525C33.2356 54.4209 33.9304 54.0736 34.5094 53.7262C34.8568 53.4946 34.5094 52.9157 34.162 53.1472C33.3514 53.6104 32.5408 53.9578 31.6143 54.3051C31.3827 54.1894 31.2669 54.1894 31.0353 54.0736C31.3827 52.9157 31.4985 51.642 31.7301 50.4841C31.7301 50.0209 31.0353 50.0209 31.0353 50.4841C30.9195 51.642 30.6879 52.6841 30.4563 53.842C29.1825 53.3788 27.7929 52.9157 26.5191 52.3367C26.0558 52.2209 25.94 52.7999 26.2874 53.0315C30.8037 54.8841 30.3405 54.3051 30.1089 54.8841C29.1825 55.2315 28.3719 55.463 27.4455 55.5788C26.9823 55.6946 27.2139 56.3893 27.6771 56.2736C28.3719 56.1578 29.1825 55.9262 29.8773 55.6946C29.5299 56.6209 29.1825 57.5472 28.8351 58.4736C28.6035 58.9367 29.2983 59.2841 29.4141 58.8209C31.2669 54.6525 29.9931 55.6946 31.6143 54.9999C32.7724 55.463 34.0462 55.8104 35.32 56.1578C35.899 56.3893 36.0148 55.6946 35.5516 55.5788Z" fill="#1D1D1B"/>
<path d="M57.5539 12.5053C57.2065 12.7369 56.9749 12.8527 56.6275 13.0843C56.8591 12.7369 57.0907 12.3895 57.3223 12.0422C57.5539 11.579 56.9749 11.2316 56.7433 11.579C56.3959 12.0422 56.1643 12.5053 55.8169 12.9685C55.4695 12.1579 55.3537 11.3474 55.2379 10.4211C55.2379 9.95794 54.4273 9.95794 54.5431 10.4211C54.6589 11.4632 55.0063 12.6211 55.3537 13.5474C55.2379 13.6632 53.6166 14.2422 52.3428 14.4737C51.8796 14.5895 52.1112 15.2843 52.5744 15.1685C53.2692 15.0527 53.9641 14.8211 54.6589 14.5895L53.0376 16.9053C52.806 17.2527 53.385 17.6 53.6166 17.2527C54.3115 16.3264 55.0063 15.2843 55.7011 14.3579C56.1643 15.1685 56.6275 15.979 57.3223 16.7895C57.6697 17.1369 58.1329 16.6737 57.7855 16.3264C57.2065 15.6316 56.7433 14.8211 56.2801 14.0106C56.8591 13.779 57.4381 13.4316 57.9013 13.0843C58.2487 12.8527 57.9013 12.1579 57.5539 12.5053Z" fill="#1D1D1B"/>
<path d="M94.9583 36.5894C94.8425 36.1262 94.1477 36.3578 94.2635 36.821C94.3793 37.2841 95.8847 41.5683 95.8847 41.7999C96.0005 42.2631 95.7689 42.6104 95.3057 42.7262C93.4529 43.3052 90.6736 42.9578 88.9366 42.4946C88.705 42.3788 88.3576 42.6104 88.4734 42.9578C90.0946 47.242 91.7159 51.5262 93.3371 55.8104C91.1368 55.4631 89.0524 55.1157 86.968 54.5367C86.6206 54.421 86.389 54.8841 86.6206 55.1157C89.284 57.4315 91.8317 59.7473 94.4951 62.0631C92.5265 62.5262 90.6736 62.9894 88.705 63.3367C88.2418 63.4525 88.4734 64.1473 88.9366 64.0315L95.3057 62.5262C95.5373 62.5262 95.6531 62.2946 95.5373 62.0631C95.4215 61.7157 88.4734 55.5788 88.126 55.3473C89.9788 55.8104 91.9475 56.1578 93.8003 56.3894C94.0319 56.3894 94.3793 56.2736 94.2635 55.9262C92.6423 51.642 91.021 47.3578 89.3998 43.0736C90.442 43.3052 91.6001 43.421 92.6423 43.421C93.6845 43.5367 94.8425 43.421 95.7689 42.9578C96.5795 42.4946 96.6954 41.9157 96.4638 41.1052C96.3479 40.642 95.8847 39.4841 94.9583 36.5894Z" fill="#1D1D1B"/>
<path d="M45.858 39.9475C45.858 39.4843 45.1632 39.4843 45.1632 39.9475C45.0474 42.0317 45.279 44.1159 45.858 46.0843C45.9738 46.5475 46.6686 46.3159 46.5528 45.8527C45.9738 44.0001 45.7422 41.9159 45.858 39.9475Z" fill="#1D1D1B"/>
<path d="M49.4477 36.3581C49.4477 35.895 48.7529 35.895 48.7529 36.3581C48.637 37.8634 48.6371 39.3686 48.9845 40.8739C49.1003 41.3371 49.7951 41.1055 49.6793 40.6423C49.3319 39.2528 49.3319 37.7476 49.4477 36.3581Z" fill="#1D1D1B"/>
<path d="M55.0061 47.5892C53.6165 45.505 53.0375 42.9577 53.3849 40.5261C53.3849 40.0629 52.6901 40.0629 52.6901 40.5261C52.3427 43.0734 53.0375 45.7366 54.4271 47.9366C54.5429 48.284 55.2377 47.9366 55.0061 47.5892Z" fill="#1D1D1B"/>
<path d="M54.543 55.0002C55.0062 55.116 55.122 54.4213 54.7746 54.3055C53.1534 53.9581 51.8796 52.8002 51.3006 51.2949C51.1847 50.8318 50.4899 51.0634 50.6057 51.5265C51.3006 53.2634 52.6902 54.537 54.543 55.0002Z" fill="#1D1D1B"/>
<path d="M57.0907 59.8631C55.2379 59.7473 53.3851 58.9368 51.9954 57.5473C51.648 57.1999 51.1848 57.7789 51.5322 58.0104C53.0376 59.3999 55.0063 60.3262 57.2065 60.442C57.5539 60.5578 57.5539 59.8631 57.0907 59.8631Z" fill="#1D1D1B"/>
<path d="M66.2391 56.8528C64.5021 57.5475 62.6492 57.6633 60.7964 57.0844C60.3332 56.9686 60.2174 57.6633 60.5648 57.7791C62.4176 58.3581 64.5021 58.2423 66.3549 57.5475C66.8181 57.4318 66.7023 56.737 66.2391 56.8528Z" fill="#1D1D1B"/>
<path d="M75.5035 54.1892C73.7665 54.4208 72.0295 54.6524 70.4082 54.9998C69.945 55.1155 70.1766 55.8103 70.6399 55.6945C72.2611 55.3471 73.8823 55.1156 75.6193 54.884C75.9668 54.7682 75.9667 54.0734 75.5035 54.1892Z" fill="#1D1D1B"/>
<path d="M78.7457 58.8211C77.4719 58.0106 75.8507 57.6632 74.3453 58.0106C73.8821 58.1264 74.1137 58.8211 74.5769 58.7053C75.9665 58.4738 77.3561 58.7053 78.5141 59.4001C78.7457 59.6317 79.0931 59.0527 78.7457 58.8211Z" fill="#1D1D1B"/>
<path d="M49.2164 68.895C48.869 68.6634 48.5216 69.2423 48.869 69.4739C49.9112 70.1686 51.0692 70.7476 52.3431 71.095C52.8063 71.2108 52.9221 70.516 52.5747 70.4002C51.3008 70.0529 50.2586 69.5897 49.2164 68.895Z" fill="#1D1D1B"/>
<path d="M76.6612 83.1369C77.2402 82.3263 77.356 81.2842 77.1244 80.3579C77.0086 79.8948 76.3138 80.1263 76.4296 80.5895C76.6612 81.4 76.5454 82.2106 76.0822 82.7895C75.7348 83.2527 76.3138 83.6 76.6612 83.1369Z" fill="#1D1D1B"/>
<path d="M64.9653 30.9156C65.4286 30.9156 65.4286 30.2209 64.9653 30.2209C63.8073 30.2209 62.7651 29.7577 61.8387 28.9472C61.4913 28.5998 61.0281 29.1788 61.3755 29.4104C62.3019 30.3367 63.5757 30.7998 64.9653 30.9156Z" fill="#1D1D1B"/>
<path d="M73.5349 10.5368C73.8823 9.26315 74.1139 7.98947 74.4613 6.71578C74.5771 6.25262 73.8823 6.13683 73.7665 6.4842C73.4191 7.75789 73.1875 9.03157 72.8401 10.3053C72.7243 10.8842 73.4191 11 73.5349 10.5368Z" fill="#1D1D1B"/>
<path d="M33.467 11.2317C33.9302 11.3475 34.1618 10.6528 33.6986 10.537C32.0773 10.3054 30.5719 9.37907 29.4139 8.22117C29.0665 7.8738 28.6033 8.33696 28.9507 8.68433C30.1087 10.0738 31.7299 11.0001 33.467 11.2317Z" fill="#1D1D1B"/>
<path d="M124.372 78.0422V82.2106C124.372 82.6738 125.067 82.6738 125.067 82.2106V78.0422C125.067 77.579 124.372 77.579 124.372 78.0422Z" fill="#1D1D1B"/>
<path d="M155.754 106.642C155.291 106.642 155.291 107.337 155.754 107.337C166.292 108.147 172.777 118.105 177.641 126.211C177.872 126.558 178.451 126.211 178.22 125.863C172.893 116.947 166.524 107.568 155.754 106.642Z" fill="#1D1D1B"/>
<path d="M181.81 120.768C178.22 112.663 171.156 106.41 162.586 103.747C162.123 103.632 162.007 104.326 162.355 104.442C170.808 106.989 177.641 113.126 181.231 121.116C181.346 121.579 182.041 121.232 181.81 120.768Z" fill="#1D1D1B"/>
<path d="M31.4984 155.505C28.1401 151.105 25.0135 146.474 22.2342 141.611C22.0026 141.263 21.4236 141.611 21.6552 141.958C24.4345 146.821 27.4453 151.453 30.9194 155.853C31.151 156.316 31.73 155.969 31.4984 155.505Z" fill="#1D1D1B"/>
<path d="M30.1089 158.284C23.8556 156.2 17.8339 153.653 12.0438 150.642C11.6964 150.41 11.2332 150.989 11.6964 151.221C17.6023 154.232 23.624 156.895 29.8773 158.979C30.3405 159.095 30.5721 158.4 30.1089 158.284Z" fill="#1D1D1B"/>
<path d="M25.8242 161.758C21.5396 163.147 17.0233 163.958 12.6228 164.189C12.1596 164.189 12.1596 164.884 12.6228 164.884C17.1391 164.652 21.6554 163.726 26.0558 162.337C26.4033 162.337 26.2875 161.642 25.8242 161.758Z" fill="#1D1D1B"/>
<path d="M116.613 207.842C116.497 207.379 115.802 207.611 115.918 208.074C116.729 212.011 117.539 215.832 118.466 219.769C118.582 220.232 119.277 220 119.161 219.537C118.35 215.716 117.424 211.779 116.613 207.842Z" fill="#1D1D1B"/>
<path d="M119.624 206.916C119.276 206.569 118.813 207.032 119.161 207.379L128.077 218.263C128.425 218.611 128.888 218.148 128.541 217.8C125.53 214.095 122.635 210.505 119.624 206.916Z" fill="#1D1D1B"/>
<path d="M133.752 209.579C130.162 207.611 126.34 205.874 122.287 204.6C121.824 204.485 121.708 205.179 122.056 205.295C125.993 206.569 129.698 208.19 133.288 210.158C133.752 210.506 134.099 209.811 133.752 209.579Z" fill="#1D1D1B"/>
<path d="M90.0941 83.6001C89.1676 83.6001 88.357 84.0633 88.0096 84.9896C87.8938 85.8001 88.5886 87.4212 89.7466 87.6527C90.9047 87.8843 92.0627 87.0738 92.2943 85.9159C92.2943 85.1054 91.7153 83.6001 90.0941 83.6001Z" fill="#AC47F5"/>
<path d="M18.6444 22.5789C21.8869 23.2736 25.2452 23.2736 28.4876 22.6946C21.7711 33.6946 22.4659 32.3052 22.2343 33.1157C22.0027 33.9262 22.3501 34.621 23.3923 34.1578C24.3188 33.8104 26.6348 32.7683 32.3091 30.4525C29.2982 39.2525 28.6034 40.5262 28.7192 42.842C28.7192 43.1894 29.0666 43.3052 29.2982 43.1894C31.0353 42.1473 32.4249 40.8736 33.6987 39.3683C34.0461 39.021 33.4671 38.442 33.1197 38.7894C32.0775 40.0631 30.8037 41.221 29.414 42.1473C29.414 40.2946 29.7615 39.7157 33.2355 29.8736C33.3513 29.642 33.0039 29.2946 32.7723 29.4104C29.414 30.7999 26.1716 32.1894 22.8133 33.5789C22.6975 33.3473 23.0449 32.8841 23.1607 32.6525C23.5081 32.1894 29.5299 22.3473 29.5299 22.3473C29.6457 22.1157 29.5299 21.8841 29.414 21.8841C28.9508 21.6525 25.5926 23.042 19.4551 21.9999C21.0763 19.7999 22.4659 17.3683 23.6239 14.821C23.8555 14.3578 23.1607 14.0104 22.9291 14.4736C20.1499 21.1894 17.4864 22.2315 18.6444 22.5789Z" fill="#AC47F5"/>
<path d="M135.373 93.3262L129.235 95.7578C128.772 95.9894 129.004 96.7999 129.467 96.5683C131.551 95.7578 133.52 94.9473 135.604 94.1368C136.068 94.021 135.952 93.2104 135.373 93.3262Z" fill="#AC47F5"/>
<path d="M135.952 67.737C136.299 70.2843 136.647 72.7159 137.11 75.2633C137.226 75.8422 138.036 75.6107 137.92 75.0317C137.573 72.4843 137.226 70.0528 136.762 67.5054C136.647 67.0422 135.836 67.2738 135.952 67.737Z" fill="#AC47F5"/>
<path d="M30.1087 86.8424L30.9193 92.9793C31.0351 93.5582 31.8457 93.5582 31.7299 92.9793L30.9193 86.8424C30.9193 86.2635 29.9928 86.2635 30.1087 86.8424Z" fill="#AC47F5"/>
<path d="M38.0989 106.758C42.152 103.169 43.6574 103.285 43.1942 102.59C43.0784 102.358 42.8468 102.358 42.6152 102.474C40.7624 103.516 39.1411 104.79 37.5199 106.179C37.0567 106.411 37.6357 107.106 38.0989 106.758Z" fill="#AC47F5"/>
<path d="M53.9641 82.674C54.0799 83.7161 54.4273 84.7582 55.0063 85.6845C55.3538 86.1477 56.0486 85.6845 55.7012 85.2214C55.1221 84.4109 54.7747 83.6003 54.7747 82.5582C54.7747 82.0951 53.8483 82.0951 53.9641 82.674Z" fill="#AC47F5"/>
<path d="M9.7277 76.1897C8.56967 76.6528 7.52746 77.116 6.36943 77.5791C5.90623 77.8107 6.25363 78.5055 6.83264 78.2739C7.99066 77.8107 9.03288 77.3476 10.1909 76.8844C10.6541 76.6528 10.1909 75.9581 9.7277 76.1897Z" fill="#AC47F5"/>
<path d="M7.4115 43.0737C5.09546 43.1895 2.77941 42.9579 0.579172 42.1473C0.000161582 41.9158 -0.231443 42.7263 0.231766 42.8421C2.54781 43.6526 4.97965 44 7.2957 43.7684C7.87471 43.7684 7.87471 42.9579 7.4115 43.0737Z" fill="#AC47F5"/>
<path d="M84.6515 31.2633C83.4934 30.337 82.7986 28.9475 82.567 27.558C82.4512 26.9791 81.6406 27.2106 81.7564 27.7896C81.988 29.4106 82.9144 30.8001 84.0724 31.8422C84.4199 32.1896 84.9989 31.6106 84.6515 31.2633Z" fill="#AC47F5"/>
<path d="M99.3582 13.0843C101.095 11.9264 102.832 10.7685 104.569 9.72642C105.033 9.37905 104.569 8.68432 104.106 9.03168C102.369 10.1896 100.632 11.3475 98.895 12.3896C98.4318 12.6212 98.895 13.3159 99.3582 13.0843Z" fill="#AC47F5"/>
<path d="M151.238 78.2739C153.206 78.6213 155.059 78.9686 157.028 79.2002C157.607 79.316 157.723 78.5055 157.259 78.3897C155.291 78.0423 153.438 77.695 151.469 77.4634C150.89 77.4634 150.659 78.2739 151.238 78.2739Z" fill="#AC47F5"/>
<path d="M160.965 48.4001C160.618 46.2001 160.618 43.8844 160.965 41.6844C161.081 41.1054 160.27 40.9896 160.155 41.4528C159.807 43.7686 159.807 46.2002 160.155 48.6317C160.27 49.0949 161.081 48.8633 160.965 48.4001Z" fill="#AC47F5"/>
<path d="M147.532 115.326C145.911 116.137 144.289 116.947 142.784 117.642C142.321 117.874 142.668 118.569 143.247 118.337C144.868 117.526 146.49 116.716 147.995 116.021C148.458 115.79 147.995 115.095 147.532 115.326Z" fill="#AC47F5"/>
<path d="M160.386 129.453L158.881 135.358C158.765 135.821 159.576 136.053 159.692 135.589C160.155 133.621 160.734 131.653 161.197 129.684C161.313 129.221 160.502 128.989 160.386 129.453Z" fill="#AC47F5"/>
<path d="M103.759 151.916C104.338 152.032 104.454 151.221 103.99 151.106C102.601 150.758 101.211 150.295 99.9373 149.6C99.4741 149.369 99.0109 150.063 99.4741 150.295C100.748 150.99 102.253 151.569 103.759 151.916Z" fill="#AC47F5"/>
<path d="M119.739 132.232C119.508 131.769 118.813 132.116 119.045 132.695C119.739 134.316 120.55 135.821 121.245 137.442C121.476 137.905 122.171 137.558 121.94 136.979C121.245 135.358 120.434 133.737 119.739 132.232Z" fill="#AC47F5"/>
<path d="M188.758 141.263L191.189 145.663C191.421 146.126 192.116 145.779 191.884 145.316L189.452 140.916C189.221 140.453 188.526 140.8 188.758 141.263Z" fill="#AC47F5"/>
<path d="M181.462 75.3793C180.304 75.9582 179.262 76.4214 178.104 77.0003C177.641 77.2319 177.988 77.9266 178.567 77.6951C179.725 77.1161 180.767 76.653 181.925 76.074C182.389 75.9582 181.925 75.1477 181.462 75.3793Z" fill="#AC47F5"/>
</g>
<path d="M421.822 88.2488C413.137 74.6454 400.789 61.9838 385.198 57.1703C334.656 41.1602 300.438 79.0403 291.648 99.1315C287.567 108.549 285.37 118.804 285.265 129.059C285.893 128.745 286.521 128.431 287.253 128.222C293.636 126.129 300.752 130.524 307.031 128.326C312.786 126.338 315.611 119.641 320.843 116.293C324.924 113.677 330.052 113.467 334.97 112.526C344.911 110.642 349.096 105.619 360.816 99.55C367.095 124.35 381.431 147.266 402.254 162.23C392.313 168.404 386.453 170.078 379.966 176.985C374.001 183.263 370.339 189.855 362.177 193.099C352.236 197.076 344.387 192.471 333.086 204.087C356.212 214.342 380.279 212.772 397.65 202.831C434.484 182.007 444.739 124.35 421.822 88.2488Z" fill="#B2EACD"/>
<path d="M480.839 63.2391C475.398 56.856 465.562 56.7514 457.19 57.9024C420.357 63.1345 391.266 79.2493 359.979 99.1311C365.838 126.338 380.802 144.441 401.626 162.962C427.995 144.859 467.445 117.548 480.735 88.667C484.502 80.505 486.699 70.0408 480.839 63.2391ZM452.063 64.7041C451.749 65.7505 451.435 67.5294 450.075 69.9362C448.819 72.2383 447.04 74.0172 444.738 75.3775C443.482 76.11 442.122 76.6332 440.866 77.2611C440.029 75.9007 439.192 74.4358 438.25 73.0754C439.506 72.1337 440.866 70.9826 440.552 69.3083C440.448 68.8898 439.82 66.6923 440.134 64.9134C440.238 64.5995 440.343 64.8088 440.552 65.018C441.18 65.9598 441.18 67.0062 442.227 67.0062C443.378 67.0062 443.587 65.6459 445.157 63.3438C445.366 62.9252 445.68 62.5067 445.994 62.0881C446.203 61.7742 446.517 61.251 447.04 61.3556C447.668 61.4602 447.145 63.0299 447.04 63.4484C446.831 64.1809 446.726 65.018 446.412 65.7505C446.308 66.0645 446.935 66.2737 447.04 65.9598C447.563 65.018 448.191 63.1345 449.133 62.5067C449.447 62.2974 449.97 62.0881 449.97 62.7159C449.97 63.1345 449.761 63.5531 449.656 63.9716C449.342 65.018 449.028 65.9598 448.714 66.9016C448.505 67.3202 449.238 67.4248 449.342 67.1109C449.761 65.8552 450.389 64.8088 451.33 64.0763C451.54 63.9716 451.644 63.867 451.854 64.0763C452.167 64.1809 452.063 64.4948 452.063 64.7041Z" fill="#FFDA66"/>
<path d="M344.283 127.803C344.702 123.827 342.086 118.385 338.947 117.025C335.389 121.211 330.471 124.141 324.297 125.187C324.506 125.71 325.866 130.419 326.913 132.093C332.564 131.465 336.54 132.407 344.283 127.803Z" fill="#FFDA66"/>
<path d="M334.342 159.404C332.353 156.788 330.889 153.649 330.156 150.405C323.459 153.754 315.402 154.8 309.751 160.974C312.367 163.276 314.146 166.311 314.564 169.869C324.819 158.986 326.808 162.858 334.342 159.404Z" fill="#FFDA66"/>
<path d="M368.978 91.4928C367.827 90.9696 366.571 90.6556 365.316 90.7603C362.281 90.8649 359.456 92.3299 356.735 93.8995C349.724 97.7712 342.609 101.748 336.539 106.875C335.493 107.712 334.342 108.759 334.133 110.328C334.028 111.061 334.237 111.793 334.656 112.212C335.598 113.363 337.167 112.944 338.423 112.421C344.492 110.328 360.293 100.91 368.978 96.9341C371.176 95.8877 371.176 92.6438 368.978 91.4928Z" fill="black"/>
<path d="M388.86 138.477C383.628 136.175 354.223 152.289 358.723 160.556C359.56 162.126 361.444 162.963 363.327 163.172C365.211 163.381 366.99 162.858 368.768 162.335C377.663 159.719 385.93 155.115 392.941 149.15C393.778 148.418 394.719 147.58 395.138 146.534C395.452 145.383 389.906 139 388.86 138.477Z" fill="black"/>
<path d="M363.537 171.438C363.432 171.543 350.561 177.508 347.736 178.868C350.038 181.693 350.98 184.309 352.026 187.763C357.154 185.042 364.792 180.124 369.083 175.624C367.095 174.996 365.211 173.008 363.537 171.438Z" fill="#FFDA66"/>
<path d="M404.138 83.226C409.893 85.0049 415.753 87.9349 418.892 93.167C422.659 99.3408 420.148 106.038 416.381 112.212C412.718 118.386 408.219 124.559 401.94 128.222C400.371 129.164 398.592 130.105 396.604 130.001C395.452 129.896 394.301 129.373 393.778 128.431C392.418 126.338 393.987 123.722 395.348 121.734C399.638 115.665 402.987 108.863 405.289 101.748C396.185 100.596 387.5 97.1433 380.07 91.8066C377.14 89.6092 374.001 86.2606 375.571 82.5982C376.303 80.9239 377.768 79.6682 379.547 79.2497C389.802 76.8429 398.801 81.5518 404.138 83.226Z" fill="#AE3EFF"/>
<path d="M408.323 156.894C400.475 161.916 384.674 169.974 379.651 173.95C378.605 174.787 377.349 175.834 377.663 177.194C377.768 177.822 378.187 178.345 378.71 178.554C379.965 179.078 381.221 178.764 382.477 178.345C389.697 176.043 396.603 172.171 403.405 168.404C407.381 166.102 410.939 164.114 412.195 159.614C412.613 157.207 410.416 155.533 408.323 156.894Z" fill="black"/>
<path d="M403.509 145.383C403.405 146.011 402.044 146.534 401.521 146.22C400.998 145.906 400.684 145.279 400.265 144.651C397.859 140.57 393.15 138.581 389.278 135.756C388.441 135.233 386.767 134.5 386.453 133.663C386.139 132.826 387.29 131.257 388.127 130.733C391.894 131.047 395.557 132.617 398.382 135.338C401.207 138.058 403.928 141.616 403.509 145.383Z" fill="black"/>
<path d="M437.309 72.7615C436.681 72.9708 436.053 73.2847 435.425 73.3893C432.181 74.1218 428.937 73.2847 426.007 71.8197C423.705 70.564 421.717 68.8897 419.938 66.9016C420.671 64.8087 420.566 62.6113 419.415 60.7277C416.276 61.8788 413.136 59.0535 413.764 56.9606C409.474 56.1235 405.393 57.7978 401.521 60.0999C394.092 64.2855 385.302 70.6686 379.756 76.9471C384.255 76.11 391.057 76.5286 395.347 78.2028C399.742 79.7724 403.928 81.7606 408.428 82.5978C409.579 81.2374 410.73 79.9817 411.776 78.6214C413.869 80.2956 415.02 80.9235 418.055 82.5978C423.496 85.4231 434.902 84.7952 440.866 78.6214C440.552 78.0982 441.599 79.6678 437.309 72.7615Z" fill="#FF9F48"/>
<path d="M452.587 63.6578C452.273 63.1346 451.54 63.1346 451.017 63.4485H450.913C450.076 64.2856 450.599 63.867 450.599 63.3438C450.808 62.5067 450.599 61.4603 449.552 61.5649C448.924 61.6696 448.297 62.1928 447.983 62.8206C448.087 62.4021 448.192 61.9835 448.087 61.5649C447.983 60.7278 447.25 60.4139 446.518 60.7278C445.681 61.0417 445.157 62.0881 444.634 62.8206C442.646 65.9599 442.751 66.3784 442.227 66.2738C441.809 66.1692 441.704 65.7506 441.495 65.4367C441.286 64.9135 440.553 63.5531 439.716 64.181C438.879 65.0181 439.402 67.3202 439.507 68.5759C439.716 69.0991 439.821 69.6223 439.716 70.2502C439.402 71.1919 438.67 71.8198 437.832 72.5523C437.623 72.343 437.832 72.0291 437.205 72.0291C433.961 73.494 430.194 72.9708 427.159 71.5059C420.985 68.5759 418.892 63.5531 415.858 61.8789C411.777 59.6814 407.173 62.2974 405.498 66.5877C405.08 67.5295 404.975 68.4713 405.498 70.0409C406.44 73.3894 408.324 76.3194 411.881 79.04C414.079 80.8189 417.323 82.4932 419.311 83.3303C425.799 85.6324 436.681 83.9582 441.39 78.2029C441.495 78.0983 441.6 77.9936 441.495 77.7843C441.39 77.6797 441.286 77.5751 441.286 77.4704C443.902 76.3194 446.622 74.959 448.506 72.8662C450.389 70.6687 451.75 68.0527 452.482 65.2274C452.692 65.0181 453.005 64.2856 452.587 63.6578ZM427.264 83.8535C423.183 84.0628 420.567 83.435 417.951 82.2839C416.59 81.5514 415.125 80.8189 413.87 79.9818C411.672 78.5168 409.684 76.7379 408.219 74.6451C407.173 72.9708 405.708 70.1455 405.917 68.3666C406.022 67.1109 406.754 65.7506 407.487 64.8088C408.324 63.6578 409.37 62.8206 410.73 62.2974C412.195 61.7742 413.87 61.7742 415.23 62.5067C418.265 63.867 420.148 68.5759 426.217 71.8198C430.612 74.2265 435.007 74.0173 437.519 72.7616L440.867 78.2029C437.205 81.97 432.182 83.5396 427.264 83.8535ZM452.064 64.7042C451.75 65.6459 451.541 67.4249 450.076 69.9362C448.087 73.494 444.843 75.9008 440.867 77.2611C440.03 75.9008 439.193 74.4358 438.251 73.0755C442.123 70.0409 440.135 69.5177 440.135 66.2738C440.135 65.8552 440.03 65.4367 440.239 65.0181C440.344 64.7042 440.449 64.8088 440.658 65.1227C441.39 66.1692 441.39 67.1109 442.332 67.1109C443.483 67.1109 443.483 65.9599 445.262 63.4485C445.471 63.0299 445.785 62.6114 446.099 62.1928C446.308 61.8789 446.622 61.3557 447.146 61.4603C447.773 61.5649 447.355 63.1346 447.146 63.5531C446.936 64.2856 446.832 65.1227 446.518 65.8552C446.308 66.1692 447.041 66.3784 447.146 66.0645C447.564 65.2274 448.401 63.2392 449.238 62.6114C449.552 62.4021 450.076 62.1928 450.076 62.8206C450.076 63.3438 449.762 63.6578 448.82 67.0063C448.611 67.4249 449.343 67.5295 449.448 67.2156C449.866 65.9599 450.494 64.9135 451.436 64.181C451.645 64.0763 451.75 63.9717 451.959 64.181C452.168 64.181 452.064 64.4949 452.064 64.7042Z" fill="black"/>
<path d="M479.583 68.4717C479.269 65.1232 477.909 61.67 475.188 59.4726C474.561 58.9494 473.828 58.5308 472.991 58.1122C472.572 57.903 472.259 58.5308 472.677 58.6354C475.921 60.1004 477.909 63.2397 478.642 66.5882C480.421 75.1688 474.665 82.0751 469.224 88.6675C460.434 99.1316 450.912 109.073 440.761 118.7C424.333 134.396 410.729 144.755 395.452 156.161C395.138 156.37 395.452 156.998 395.766 156.684C422.345 137.221 447.668 115.142 468.491 90.4464C473.828 84.2726 480.316 76.7384 479.583 68.4717Z" fill="black"/>
<path d="M418.159 144.965C416.38 146.221 414.706 147.581 412.927 148.837C412.613 149.046 412.927 149.674 413.241 149.36C415.02 148.104 416.694 146.744 418.473 145.488C418.891 145.383 418.578 144.651 418.159 144.965Z" fill="black"/>
<path d="M435.634 129.791C433.96 131.256 432.181 132.616 430.506 134.081C430.193 134.291 430.716 134.814 431.03 134.605C432.704 133.14 434.483 131.779 436.157 130.314C436.471 130.105 435.948 129.582 435.634 129.791Z" fill="black"/>
<path d="M450.494 114.828C449.238 116.188 447.878 117.653 446.622 119.013C446.308 119.327 446.831 119.851 447.145 119.537C448.401 118.176 449.761 116.711 451.017 115.351C451.331 115.037 450.808 114.514 450.494 114.828Z" fill="black"/>
<path d="M465.353 99.132C464.097 100.283 462.737 101.434 461.586 102.585C461.272 102.899 461.795 103.422 462.109 103.108C463.364 101.957 464.725 100.806 465.876 99.6552C466.19 99.3412 465.667 98.818 465.353 99.132Z" fill="black"/>
<path d="M476.863 84.1671C475.712 85.5274 474.561 86.9924 473.41 88.3528C473.201 88.6667 473.62 89.1899 473.934 88.876C475.085 87.5156 476.236 86.0507 477.387 84.6903C477.701 84.3764 477.177 83.8532 476.863 84.1671Z" fill="black"/>
<path d="M471.213 10.396C470.376 10.396 469.643 11.0238 469.748 11.861C469.748 12.6981 470.376 13.326 471.213 13.326C472.05 13.326 472.782 12.6981 472.678 11.861C472.678 11.0238 472.05 10.396 471.213 10.396Z" fill="black"/>
<path d="M429.252 49.3222C429.252 48.9036 428.938 48.6943 428.624 48.6943C428.31 48.6943 427.996 49.0083 427.996 49.3222C427.996 50.1593 429.252 50.1593 429.252 49.3222Z" fill="black"/>
<path d="M435.948 47.9624C435.53 47.9624 435.32 48.2763 435.32 48.5903C435.32 48.9042 435.634 49.2181 435.948 49.2181C436.785 49.2181 436.785 47.9624 435.948 47.9624Z" fill="black"/>
<path d="M429.147 45.2414C427.891 45.1367 426.74 45.7646 426.008 46.6017C425.798 46.9157 426.217 47.4389 426.531 47.1249C427.159 46.2878 428.1 45.8692 429.147 45.8692C429.565 45.9739 429.565 45.2414 429.147 45.2414Z" fill="black"/>
<path d="M447.04 36.033C445.262 31.8474 442.541 29.2313 439.088 27.2432C421.089 16.6744 398.487 38.5444 413.869 55.7056C413.555 56.2288 413.346 56.8566 413.346 57.5891C413.66 60.1005 416.799 62.0887 419.729 60.9377C420.043 60.833 420.252 60.7284 420.566 60.5191C436.262 67.0069 453.842 52.2524 447.04 36.033ZM413.869 57.5891C413.764 57.0659 413.974 56.752 414.183 56.3334C416.694 58.8448 418.369 59.5773 419.52 60.2052C417.113 61.4609 414.183 59.5773 413.869 57.5891ZM420.357 59.9959C418.159 59.0541 416.276 57.6938 414.602 56.0195C415.334 55.1824 418.264 51.7292 418.683 51.1014C418.892 50.8921 419.101 50.5782 419.206 50.4735C419.415 50.055 419.415 49.8457 419.31 49.6364C418.473 48.7993 418.473 47.5436 419.101 46.7064C419.834 45.66 421.403 45.8693 422.24 46.7064C422.45 46.9157 422.554 46.9157 422.764 46.7064C424.333 45.1368 426.112 43.4626 428.1 42.7301C431.03 41.7883 433.646 43.044 435.321 45.2415C435.216 45.2415 435.007 45.2415 434.902 45.2415C434.483 45.3461 434.693 45.974 435.111 45.8693C435.321 45.7647 435.635 45.8693 435.739 46.0786C435.739 46.1832 435.844 46.2879 435.948 46.2879C436.995 48.6946 436.786 51.9385 436.158 54.3453C435.739 56.2288 435.111 56.752 433.856 57.6938C431.135 59.368 426.426 59.5773 422.868 57.9031C422.659 57.6938 421.613 57.2752 421.299 56.0195C421.089 55.601 420.462 55.8102 420.671 56.2288C420.88 57.0659 421.508 57.7984 422.24 58.217C421.508 58.8448 420.985 59.4727 420.357 59.9959ZM421.089 60.1005C421.613 59.5773 422.136 58.9495 422.659 58.4263C426.112 59.9959 430.402 60.1005 433.751 58.3216C435.111 57.5891 436.262 56.5427 436.681 55.0777C437.518 52.2524 437.832 48.3807 436.472 45.7647C437.727 43.4626 436.262 40.114 434.483 38.7537C433.018 37.7073 431.344 38.7537 431.449 40.0094C429.042 36.1377 425.17 35.4052 422.764 36.9748C421.299 37.9166 420.462 39.8001 421.089 41.4744C420.462 41.1605 419.834 40.8465 419.206 40.7419C418.578 40.6372 417.741 40.5326 417.218 40.9512C415.229 41.9976 414.916 45.5554 415.648 47.7529C416.171 49.0085 417.218 50.055 418.369 50.7875C417.427 51.8339 416.485 52.9849 415.543 54.136C415.125 54.6592 414.706 55.0777 414.288 55.601C408.742 49.2178 407.905 39.9048 413.346 32.9984C425.589 18.0347 449.343 27.6617 447.878 44.7183C446.726 56.752 433.018 64.6001 421.089 60.1005Z" fill="black"/>
<path d="M433.542 54.3453C432.495 56.3335 429.984 56.0196 429.147 53.5082C430.612 53.6128 431.972 53.4035 433.332 53.1943C433.751 53.0896 433.542 52.4618 433.123 52.5664C430.193 53.1943 428.624 52.671 428.624 52.985C428.414 52.985 428.31 53.1943 428.31 53.4035C429.042 56.6474 432.495 57.3799 434.065 54.7639C434.379 54.2407 433.751 53.9267 433.542 54.3453Z" fill="black"/>
<path d="M514.012 45.7642C513.174 45.7642 512.442 46.392 512.547 47.2291C512.547 48.0663 513.174 48.6941 514.012 48.6941C514.849 48.6941 515.581 48.0663 515.477 47.2291C515.372 46.4966 514.849 45.7642 514.012 45.7642Z" fill="black"/>
<path d="M479.897 38.5439C479.06 38.5439 478.328 39.1718 478.432 40.0089C478.432 40.8461 479.06 41.4739 479.897 41.4739C480.734 41.4739 481.467 40.8461 481.362 40.0089C481.362 39.1718 480.734 38.5439 479.897 38.5439Z" fill="black"/>
<path d="M415.648 8.93066C414.811 8.93066 414.079 9.55851 414.183 10.3956C414.183 11.2328 414.811 11.8606 415.648 11.8606C416.485 11.8606 417.218 11.2328 417.113 10.3956C417.009 9.66315 416.485 8.93066 415.648 8.93066Z" fill="black"/>
<path d="M381.222 16.8828C380.384 16.8828 379.652 17.5107 379.757 18.3478C379.757 19.1849 380.384 19.8128 381.222 19.8128C382.059 19.8128 382.791 19.1849 382.687 18.3478C382.687 17.6153 382.059 16.8828 381.222 16.8828Z" fill="black"/>
<path d="M476.759 173.74C475.922 173.74 475.189 174.368 475.294 175.205C475.294 176.042 475.922 176.67 476.759 176.67C477.596 176.67 478.328 176.042 478.224 175.205C478.224 174.368 477.596 173.74 476.759 173.74Z" fill="black"/>
<path d="M486.177 96.9341C485.34 96.9341 484.607 97.5619 484.712 98.3991C484.712 99.2362 485.34 99.864 486.177 99.864C487.014 99.864 487.746 99.2362 487.642 98.3991C487.642 97.5619 487.014 96.9341 486.177 96.9341Z" fill="black"/>
<path d="M515.79 94.1084C514.953 94.1084 514.221 94.7362 514.325 95.5734C514.325 96.4105 514.953 97.0383 515.79 97.0383C516.628 97.0383 517.36 96.4105 517.255 95.5734C517.151 94.8409 516.523 94.1084 515.79 94.1084Z" fill="black"/>
<path d="M372.85 53.5078C372.013 53.5078 371.28 54.1357 371.385 54.9728C371.385 55.8099 372.013 56.4378 372.85 56.4378C373.687 56.4378 374.42 55.8099 374.315 54.9728C374.315 54.1357 373.687 53.5078 372.85 53.5078Z" fill="black"/>
<path d="M331.202 53.8218C330.365 53.8218 329.633 54.4496 329.738 55.2868C329.738 56.1239 330.365 56.7517 331.202 56.7517C332.04 56.7517 332.772 56.1239 332.667 55.2868C332.563 54.4496 331.935 53.8218 331.202 53.8218Z" fill="black"/>
<path d="M338.842 116.292C338.738 116.292 338.633 116.292 338.528 116.397C335.075 120.583 330.157 123.408 324.82 124.35C324.402 124.455 324.192 124.455 323.774 124.559C323.565 124.559 323.355 124.768 323.46 124.978C323.983 126.861 325.343 131.047 326.39 132.617C326.599 132.826 326.704 132.826 326.913 132.826C336.226 132.826 339.889 131.256 344.702 128.431C344.807 128.431 344.911 128.326 344.911 128.222C345.435 123.931 342.819 117.757 338.842 116.292ZM344.284 127.698C337.377 131.779 333.715 131.57 326.808 131.884C326.181 131.047 324.506 126.338 324.192 124.978C325.239 124.873 326.181 124.664 327.122 124.35C331.517 123.199 335.703 120.583 338.738 116.92C340.621 117.757 342.086 119.536 342.819 121.42C343.865 123.303 344.493 125.501 344.284 127.698Z" fill="black"/>
<path d="M334.97 125.71C334.551 125.71 334.133 125.815 333.714 125.815C333.505 125.292 333.505 124.873 333.295 124.455C333.714 124.245 334.132 124.141 334.551 124.141C334.97 124.141 334.97 123.408 334.551 123.408C334.028 123.408 333.609 123.618 333.086 123.722C332.981 123.513 332.981 123.304 332.877 123.094C332.772 122.676 332.04 122.885 332.249 123.304C332.354 123.513 332.458 123.827 332.458 124.036C330.889 124.978 331.307 126.861 332.981 126.548C333.191 127.28 333.295 127.908 333.505 128.64C333.086 128.536 332.668 128.431 332.249 128.326C331.83 128.117 331.726 128.85 332.04 128.954C332.563 129.164 333.086 129.268 333.609 129.373C333.714 129.687 333.819 130.001 333.819 130.315C333.923 130.733 334.656 130.524 334.446 130.105C334.342 129.896 334.237 129.582 334.237 129.373C336.016 129.373 337.062 127.28 335.911 126.234C336.016 125.92 335.493 125.815 334.97 125.71ZM332.981 125.92C332.249 125.92 332.144 125.292 332.772 124.769C333.086 126.129 333.295 125.92 332.981 125.92ZM334.551 128.745C334.342 128.013 334.132 127.175 334.028 126.443C334.551 126.338 335.074 126.234 335.597 126.443C336.644 126.861 336.435 128.745 334.551 128.745Z" fill="black"/>
<path d="M335.075 159.3C332.877 156.579 331.412 153.231 330.68 149.778C330.575 149.568 330.366 149.464 330.156 149.568C324.401 152.812 314.356 154.173 309.019 160.66C308.914 160.87 308.914 160.974 309.019 161.079V161.288C311.949 163.59 313.728 167.043 313.937 170.601C313.937 170.811 314.356 171.125 314.46 170.811C325.134 158.881 328.168 163.59 334.865 159.823C335.284 159.719 335.284 159.509 335.075 159.3ZM330.994 160.66C328.587 161.288 324.297 161.393 320.111 164.637C318.123 166.206 316.344 167.985 314.565 169.764C314.146 166.311 312.367 163.067 309.751 160.87C315.821 154.382 324.715 153.44 330.156 150.301C330.889 153.649 332.354 156.684 334.342 159.3C333.296 159.928 332.249 160.451 330.994 160.66Z" fill="black"/>
<path d="M322.832 157.835C322.308 157.626 321.68 157.626 321.262 157.835C321.053 157.939 320.843 158.044 320.739 158.044C320.529 157.626 320.425 157.312 320.215 156.893C320.739 156.37 321.367 156.056 321.994 155.637C322.413 155.428 321.994 154.8 321.68 155.114C321.157 155.428 320.529 155.847 320.006 156.265C319.797 155.847 319.692 155.533 319.483 155.114C319.274 154.696 318.646 155.01 318.96 155.428C319.169 155.847 319.378 156.265 319.483 156.684C317.704 158.044 318.646 159.509 320.529 158.881C320.739 159.404 321.053 160.032 321.367 160.66C320.843 160.765 320.32 160.765 319.902 160.451C319.483 160.242 319.378 160.974 319.692 161.079C320.32 161.288 320.948 161.288 321.576 161.183C321.68 161.393 321.785 161.707 321.89 161.916C322.099 162.334 322.727 162.02 322.413 161.602C322.308 161.393 322.204 161.183 322.099 160.974C323.355 160.556 324.087 158.463 322.832 157.835ZM319.378 158.463C319.274 158.463 319.064 158.463 318.96 158.253C318.75 158.044 319.064 157.835 319.169 157.73C319.274 157.521 319.378 157.521 319.483 157.312C319.692 157.626 319.797 157.939 319.902 158.149C319.692 158.463 319.588 158.567 319.378 158.463ZM322.518 159.718C322.308 160.032 321.994 160.346 321.68 160.556C321.471 160.032 321.157 159.3 320.843 158.777C321.262 158.567 321.576 158.463 322.099 158.463C322.832 158.358 322.936 159.091 322.518 159.718Z" fill="black"/>
<path d="M369.816 175.1C367.827 174.787 365.211 172.275 363.851 170.706C363.746 170.496 363.537 170.601 363.432 170.601C361.863 171.333 348.155 177.821 347.004 178.449C346.899 178.554 346.794 178.658 346.794 178.972C346.794 178.972 346.794 179.077 346.899 179.077C351.399 184.623 350.875 189.227 351.922 188.704C357.572 185.774 366.467 179.705 369.92 175.728C370.129 175.519 370.129 175.1 369.816 175.1ZM352.026 187.762C350.98 184.204 350.038 181.693 347.736 178.868C351.503 176.879 363.118 171.647 363.537 171.438C364.165 172.17 364.793 172.798 365.525 173.322C366.572 174.159 367.723 175.205 369.083 175.624C364.897 180.123 357.468 184.937 352.026 187.762Z" fill="black"/>
<path d="M358.2 178.031C357.886 177.612 357.572 177.194 357.258 176.775C357.782 176.252 358.514 175.729 359.142 175.415C359.561 175.205 359.247 174.578 358.828 174.891C358.096 175.205 357.572 175.729 356.945 176.356C356.735 176.147 356.735 176.043 356.526 175.833C356.317 175.415 355.689 175.833 356.003 176.147C356.212 176.356 356.317 176.67 356.526 176.88C356.421 177.089 356.317 177.194 356.212 177.403C356.003 177.926 355.689 178.449 355.898 178.972C356.107 179.496 356.631 179.705 357.154 179.496C357.468 179.391 357.782 179.182 358.096 178.972C358.514 179.496 358.933 179.914 359.351 180.542C358.828 180.961 358.514 181.379 357.991 181.798C357.677 182.112 358.2 182.635 358.514 182.321C358.933 181.902 359.351 181.484 359.77 181.065C359.979 181.275 360.188 181.484 360.293 181.693C360.607 182.007 361.13 181.484 360.816 181.17C360.607 180.961 360.398 180.751 360.293 180.542C360.712 180.124 361.235 179.705 361.549 179.286C361.758 178.763 361.758 178.24 361.235 177.926C360.607 177.403 359.351 177.403 358.2 178.031ZM356.84 178.868C356.317 178.972 356.317 178.345 356.526 178.031C356.631 177.821 356.735 177.508 356.84 177.403C357.049 177.717 357.363 178.135 357.677 178.449C357.363 178.659 357.154 178.763 356.84 178.868ZM360.398 179.391L359.77 180.019C359.351 179.496 359.037 179.182 358.619 178.659C358.723 178.554 358.828 178.554 358.828 178.449C359.351 178.24 360.398 177.821 360.712 178.345C361.026 178.763 360.607 179.182 360.398 179.391Z" fill="black"/>
<path d="M479.793 142.557C478.956 142.557 478.224 143.185 478.328 144.022C478.328 144.859 478.956 145.487 479.793 145.487C480.63 145.487 481.363 144.859 481.258 144.022C481.258 143.185 480.63 142.557 479.793 142.557Z" fill="black"/>
<path d="M377.455 207.226C385.093 200.738 388.547 196.971 392.523 192.576C392.837 192.158 392.942 191.634 392.523 191.321C392.209 191.007 391.581 190.902 391.267 191.321C385.198 198.227 380.594 202.099 376.199 205.97C375.78 206.284 375.885 206.912 376.199 207.226C376.617 207.54 377.141 207.435 377.455 207.226Z" fill="black"/>
<path d="M429.252 188.495C432.914 185.251 436.576 181.798 440.239 178.554C441.076 177.717 439.82 176.461 438.983 177.299C435.321 180.647 431.658 183.996 427.996 187.239C427.159 187.972 428.414 189.228 429.252 188.495Z" fill="black"/>
<path d="M446.204 145.488C449.552 142.035 453.005 138.581 456.354 135.128C457.191 134.291 455.831 132.931 455.098 133.873C451.75 137.326 448.296 140.779 444.948 144.232C444.111 144.965 445.367 146.325 446.204 145.488Z" fill="black"/>
<path d="M327.959 186.926C325.238 189.228 322.517 191.634 319.692 193.936C318.96 194.564 319.901 196.134 320.948 195.192C323.669 192.89 326.389 190.483 329.215 188.181C329.947 187.553 329.005 185.984 327.959 186.926Z" fill="black"/>
<path d="M345.119 143.29C347.317 141.929 349.41 140.674 351.502 139.313C352.444 138.685 351.607 137.116 350.665 137.744C348.468 139.104 346.375 140.36 344.282 141.72C343.236 142.348 344.073 144.022 345.119 143.29Z" fill="black"/>
<path d="M290.602 152.603C293.636 152.08 296.357 150.719 298.868 148.94C299.287 148.627 299.391 148.103 299.182 147.685C298.973 147.266 298.345 147.057 297.926 147.371C295.624 149.045 292.904 150.301 290.078 150.929C289.555 151.033 289.346 151.557 289.45 152.08C289.66 152.498 290.183 152.708 290.602 152.603Z" fill="black"/>
<path d="M309.96 112.421C312.576 111.479 315.297 110.537 318.018 109.595C318.541 109.386 318.855 108.968 318.645 108.444C318.436 107.921 318.018 107.607 317.494 107.817C314.878 108.758 312.158 109.7 309.437 110.642C308.914 110.851 308.6 111.27 308.809 111.793C308.914 112.316 309.437 112.63 309.96 112.421Z" fill="black"/>
<path d="M341.981 84.0633C344.807 82.8076 347.632 81.7612 350.457 80.5055C350.98 80.2962 351.294 79.8776 351.085 79.3544C350.98 78.9359 350.457 78.5173 349.934 78.7266C347.109 79.9823 344.283 81.0287 341.458 82.2844C340.935 82.4937 340.621 82.9122 340.83 83.4354C340.935 83.854 341.563 84.2726 341.981 84.0633Z" fill="black"/>
<path d="M314.461 84.5863C316.867 83.5399 319.274 82.3889 321.681 81.3425C322.204 81.1332 322.204 80.5053 321.995 80.0868C321.786 79.5636 321.158 79.5636 320.739 79.7728C318.332 80.8193 315.926 81.9703 313.519 83.0167C312.996 83.226 312.996 83.8539 313.205 84.2724C313.414 84.691 313.937 84.7956 314.461 84.5863Z" fill="black"/>
<path d="M442.855 89.3996C439.925 87.3068 436.786 86.7836 434.065 87.6207C430.403 88.6671 427.577 90.9692 426.636 94.7363C425.798 98.3988 427.577 102.584 430.821 104.677C434.065 106.665 438.46 106.561 441.809 104.573C443.797 103.317 445.471 101.224 446.204 99.0266C447.145 95.4688 445.785 91.4924 442.855 89.3996ZM442.436 98.2941C441.285 102.27 436.263 104.049 432.809 101.957C428.624 99.3405 429.042 92.7481 434.798 91.1785C439.297 89.9228 443.587 94.0038 442.436 98.2941Z" fill="black"/>
<path d="M434.798 91.1785C429.042 92.7481 428.624 99.2359 432.81 101.957C436.367 104.154 441.39 102.27 442.437 98.2941C443.692 94.0038 439.193 89.9228 434.798 91.1785Z" fill="#B2EACD"/>
<defs>
<clipPath id="clip0">
<rect width="192" height="220" fill="white"/>
</clipPath>
</defs>
</svg>
